<svg width="239" height="250" viewBox="0 0 239 250" fill="none" xmlns="http://www.w3.org/2000/svg">
<path d="M153.251 250H85.0528C82.2905 250 80.0534 247.763 80.0534 245L80.0513 170.899C80.0513 168.134 82.2905 165.899 85.0507 165.899H153.249C156.011 165.899 158.248 168.136 158.248 170.899V245C158.25 247.763 156.011 250 153.249 250H153.251ZM90.0565 239.999H148.253V175.894H90.0565V239.999Z" fill="white"/>
<path d="M233.305 124.152C232.026 124.152 230.745 123.665 229.77 122.687L119.148 12.0701L88.699 42.5188C86.7465 44.4712 83.5824 44.4712 81.6279 42.5188C79.6755 40.5663 79.6755 37.4021 81.6279 35.4477L115.611 1.46435C117.564 -0.488115 120.728 -0.488115 122.682 1.46435L236.841 115.617C238.793 117.57 238.793 120.734 236.841 122.688C235.863 123.663 234.585 124.153 233.304 124.153L233.305 124.152Z" fill="white"/>
<path d="M4.99892 124.152C3.7203 124.152 2.43958 123.665 1.46435 122.688C-0.488115 120.735 -0.488115 117.571 1.46435 115.616L62.4141 54.6667C64.3666 52.7143 67.5307 52.7143 69.4852 54.6667C71.4376 56.6192 71.4376 59.7834 69.4852 61.7378L8.53007 122.688C7.55279 123.663 6.27417 124.152 4.99549 124.152H4.99892Z" fill="white"/>
<path d="M210.948 250H27.3544C24.5921 250 22.355 247.763 22.355 245.001V96.7914C22.355 94.0291 24.5942 91.792 27.3544 91.792C30.1167 91.792 32.3538 94.0312 32.3538 96.7914V240.002H205.946L205.948 96.7914C205.948 94.0291 208.187 91.792 210.947 91.792C213.71 91.792 215.947 94.0312 215.947 96.7914V245.001C215.947 247.763 213.707 250 210.947 250H210.948Z" fill="white"/>
<path d="M148.622 143.497C145.86 143.497 143.622 141.26 143.622 138.498C143.622 127.926 135.342 119.643 124.767 119.643C122.005 119.643 119.768 117.404 119.768 114.644C119.768 111.881 122.007 109.644 124.767 109.644C135.342 109.644 143.622 101.363 143.622 90.7892C143.622 88.0269 145.862 85.7898 148.622 85.7898C151.384 85.7898 153.621 88.029 153.621 90.7892C153.621 101.363 161.902 109.644 172.476 109.644C175.239 109.644 177.476 111.883 177.476 114.644C177.476 117.406 175.236 119.643 172.476 119.643C161.902 119.643 153.621 127.928 153.621 138.498C153.623 141.262 151.384 143.497 148.622 143.497ZM141.21 114.644C144.123 116.632 146.634 119.143 148.622 122.056C150.61 119.143 153.121 116.632 156.034 114.644C153.121 112.656 150.61 110.144 148.622 107.231C146.636 110.142 144.123 112.655 141.21 114.644Z" fill="white"/>
<path d="M73.5293 84.428C70.767 84.428 68.5299 82.1888 68.5299 79.4286C68.5299 63.8025 56.2874 51.5622 40.6635 51.5622C37.9012 51.5622 35.6641 49.323 35.6641 46.5628C35.6641 43.8004 37.9032 41.5633 40.6635 41.5633C56.2896 41.5633 68.5299 29.3209 68.5299 13.6969C68.5299 10.9346 70.7691 8.69751 73.5293 8.69751C76.2916 8.69751 78.5287 10.9367 78.5287 13.6969C78.5287 29.323 90.7669 41.5633 106.393 41.5633C109.155 41.5633 111.392 43.8025 111.392 46.5628C111.392 49.3251 109.153 51.5622 106.393 51.5622C90.7669 51.5622 78.5287 63.8046 78.5287 79.4286C78.5308 82.1888 76.2916 84.428 73.5293 84.428ZM59.745 46.5606C65.4896 49.8482 70.2421 54.6008 73.5293 60.3449C76.8148 54.6003 81.5695 49.8478 87.312 46.5606C81.5695 43.273 76.8149 38.5204 73.5293 32.7763C70.2417 38.5209 65.4891 43.2712 59.745 46.5606Z" fill="white"/>
</svg>
