<svg width="250" height="250" viewBox="0 0 250 250" fill="none" xmlns="http://www.w3.org/2000/svg">
<path d="M122.948 183.768C122.298 183.768 121.761 183.243 121.761 182.593C121.761 181.943 122.276 181.417 122.923 181.417H122.948C123.596 181.417 124.123 181.944 124.123 182.593C124.124 183.243 123.596 183.768 122.948 183.768H122.948Z" fill="#1DAEFF"/>
<path d="M81.7356 156.734C81.4069 156.734 81.0792 156.597 80.8471 156.328C80.4229 155.836 80.4754 155.096 80.9669 154.671L124.459 117.055C124.951 116.631 125.692 116.684 126.116 117.174C126.542 117.666 126.488 118.407 125.997 118.831L82.5044 156.447C82.2817 156.64 82.0087 156.734 81.7356 156.734V156.734Z" fill="#1DAEFF"/>
<path d="M168.72 156.734C168.447 156.734 168.174 156.64 167.951 156.447L124.459 118.831C123.968 118.407 123.915 117.666 124.339 117.174C124.765 116.683 125.508 116.63 125.997 117.056L169.489 154.671C169.98 155.096 170.033 155.837 169.609 156.328C169.378 156.596 169.049 156.734 168.72 156.734V156.734Z" fill="#1DAEFF"/>
<path d="M81.7356 161.437C81.4069 161.437 81.0792 161.299 80.8471 161.03C80.4229 160.539 80.4754 159.797 80.9669 159.373L124.459 121.758C124.951 121.334 125.692 121.386 126.116 121.877C126.542 122.368 126.488 123.109 125.997 123.534L82.5044 161.149C82.2817 161.342 82.0087 161.437 81.7356 161.437V161.437Z" fill="#1DAEFF"/>
<path d="M168.72 161.436C168.447 161.436 168.174 161.342 167.951 161.149L124.459 123.534C123.968 123.109 123.915 122.368 124.339 121.876C124.765 121.385 125.508 121.332 125.997 121.758L169.489 159.373C169.98 159.797 170.033 160.539 169.609 161.03C169.378 161.298 169.049 161.436 168.72 161.436V161.436Z" fill="#1DAEFF"/>
<path d="M81.7355 161.437C81.0854 161.437 80.5603 160.911 80.5603 160.262V155.56C80.5603 154.91 81.0864 154.385 81.7355 154.385C82.3856 154.385 82.9107 154.911 82.9107 155.56V160.262C82.9107 160.911 82.3856 161.437 81.7355 161.437Z" fill="#1DAEFF"/>
<path d="M168.72 161.437C168.07 161.437 167.545 160.911 167.545 160.262V155.56C167.545 154.91 168.071 154.385 168.72 154.385C169.37 154.385 169.895 154.911 169.895 155.56V160.262C169.895 160.911 169.37 161.437 168.72 161.437V161.437Z" fill="#1DAEFF"/>
<path d="M91.14 187.298C90.4899 187.298 89.9648 186.773 89.9648 186.122V156.826C89.9648 156.175 90.491 155.65 91.14 155.65C91.7901 155.65 92.3152 156.177 92.3152 156.826V186.122C92.3152 186.773 91.7891 187.298 91.14 187.298V187.298Z" fill="#1DAEFF"/>
<path d="M159.316 187.298C158.665 187.298 158.14 186.773 158.14 186.122V156.826C158.14 156.175 158.667 155.65 159.316 155.65C159.966 155.65 160.491 156.177 160.491 156.826V186.122C160.492 186.773 159.966 187.298 159.316 187.298V187.298Z" fill="#1DAEFF"/>
<path d="M135.807 192H88.7904C88.1403 192 87.6152 191.474 87.6152 190.825C87.6152 190.175 88.1414 189.649 88.7904 189.649H135.807C136.457 189.649 136.983 190.176 136.983 190.825C136.983 191.475 136.457 192 135.807 192Z" fill="#1DAEFF"/>
<path d="M161.668 192H135.809C135.159 192 134.634 191.474 134.634 190.825C134.634 190.175 135.16 189.649 135.809 189.649H161.668C162.318 189.649 162.843 190.176 162.843 190.825C162.843 191.475 162.317 192 161.668 192V192Z" fill="#1DAEFF"/>
<path d="M119.351 192C118.701 192 118.176 191.474 118.176 190.825V172.018C118.176 171.368 118.702 170.843 119.351 170.843C120.001 170.843 120.526 171.369 120.526 172.018V190.825C120.526 191.475 120 192 119.351 192Z" fill="#1DAEFF"/>
<path d="M131.105 173.191H119.351C118.701 173.191 118.176 172.665 118.176 172.016C118.176 171.366 118.702 170.841 119.351 170.841H131.105C131.755 170.841 132.28 171.367 132.28 172.016C132.281 172.666 131.755 173.191 131.105 173.191Z" fill="#1DAEFF"/>
<path d="M131.105 192C130.455 192 129.93 191.474 129.93 190.825V172.018C129.93 171.368 130.456 170.843 131.105 170.843C131.755 170.843 132.28 171.369 132.28 172.018V190.825C132.281 191.475 131.755 192 131.105 192Z" fill="#1DAEFF"/>
<path d="M88.7877 192C88.1376 192 87.6125 191.474 87.6125 190.825V186.123C87.6125 185.473 88.1387 184.948 88.7877 184.948C89.4378 184.948 89.9629 185.473 89.9629 186.123V190.825C89.964 191.475 89.4378 192 88.7877 192Z" fill="#1DAEFF"/>
<path d="M93.4897 187.297H88.788C88.1379 187.297 87.6128 186.772 87.6128 186.122C87.6128 185.472 88.1389 184.947 88.788 184.947H93.4897C94.1398 184.947 94.6649 185.472 94.6649 186.122C94.6659 186.772 94.1398 187.297 93.4897 187.297Z" fill="#1DAEFF"/>
<path d="M161.668 192C161.018 192 160.493 191.474 160.493 190.825V186.123C160.493 185.473 161.018 184.948 161.668 184.948C162.318 184.948 162.844 185.473 162.844 186.123V190.825C162.844 191.475 162.317 192 161.668 192Z" fill="#1DAEFF"/>
<path d="M161.668 187.297H156.966C156.316 187.297 155.791 186.772 155.791 186.122C155.791 185.472 156.317 184.947 156.966 184.947H161.668C162.318 184.947 162.843 185.472 162.843 186.122C162.843 186.772 162.317 187.297 161.668 187.297Z" fill="#1DAEFF"/>
<path d="M152.264 175.543H138.158C137.508 175.543 136.983 175.017 136.983 174.368V160.263C136.983 159.613 137.509 159.088 138.158 159.088H152.264C152.914 159.088 153.439 159.614 153.439 160.263V174.368C153.439 175.017 152.913 175.543 152.264 175.543V175.543ZM139.333 173.192H151.089V161.437H139.333V173.192Z" fill="#1DAEFF"/>
<path d="M112.299 175.543H98.1935C97.5434 175.543 97.0183 175.017 97.0183 174.368V160.263C97.0183 159.613 97.5445 159.088 98.1935 159.088H112.299C112.949 159.088 113.474 159.614 113.474 160.263V174.368C113.475 175.017 112.949 175.543 112.299 175.543V175.543ZM99.3697 173.192H111.124V161.437H99.3697V173.192Z" fill="#1DAEFF"/>
<path d="M105.247 173.191C104.597 173.191 104.072 172.665 104.072 172.016V162.612C104.072 161.962 104.598 161.437 105.247 161.437C105.897 161.437 106.422 161.963 106.422 162.612V172.016C106.422 172.666 105.896 173.191 105.247 173.191Z" fill="#1DAEFF"/>
<path d="M145.209 173.191C144.559 173.191 144.034 172.665 144.034 172.016V162.612C144.034 161.962 144.56 161.437 145.209 161.437C145.859 161.437 146.384 161.963 146.384 162.612V172.016C146.384 172.666 145.859 173.191 145.209 173.191Z" fill="#1DAEFF"/>
<path d="M149.911 168.491H140.508C139.858 168.491 139.333 167.965 139.333 167.316C139.333 166.666 139.859 166.141 140.508 166.141H149.911C150.561 166.141 151.087 166.666 151.087 167.316C151.087 167.965 150.561 168.491 149.911 168.491Z" fill="#1DAEFF"/>
<path d="M109.947 168.491H100.543C99.8928 168.491 99.3677 167.965 99.3677 167.316C99.3677 166.666 99.8938 166.141 100.543 166.141H109.947C110.597 166.141 111.122 166.666 111.122 167.316C111.122 167.965 110.596 168.491 109.947 168.491Z" fill="#1DAEFF"/>
<path d="M125.228 156.738C121.339 156.738 118.175 153.573 118.175 149.684C118.175 145.796 121.338 142.631 125.228 142.631C129.117 142.631 132.281 145.796 132.281 149.684C132.281 153.573 129.117 156.738 125.228 156.738ZM125.228 144.982C122.636 144.982 120.526 147.092 120.526 149.684C120.526 152.276 122.636 154.386 125.228 154.386C127.82 154.386 129.93 152.276 129.93 149.684C129.93 147.092 127.82 144.982 125.228 144.982Z" fill="#1DAEFF"/>
<path d="M125.228 154.385C124.578 154.385 124.053 153.858 124.053 153.209V146.156C124.053 145.506 124.579 144.981 125.228 144.981C125.878 144.981 126.403 145.507 126.403 146.156V153.209C126.403 153.86 125.878 154.385 125.228 154.385Z" fill="#1DAEFF"/>
<path d="M128.755 150.857H121.702C121.052 150.857 120.527 150.331 120.527 149.682C120.527 149.032 121.053 148.507 121.702 148.507H128.755C129.405 148.507 129.93 149.033 129.93 149.682C129.93 150.332 129.404 150.857 128.755 150.857Z" fill="#1DAEFF"/>
<path d="M199.281 109.718H51.1752C50.5251 109.718 50 109.191 50 108.542C50 107.892 50.5261 107.367 51.1752 107.367H199.281C199.931 107.367 200.456 107.893 200.456 108.542C200.457 109.191 199.931 109.718 199.282 109.718H199.281Z" fill="#1DAEFF"/>
<path d="M185.177 88.5589H175.773C175.461 88.5589 175.162 88.435 174.942 88.2144L172.935 86.2085H171.071C170.421 86.2085 169.896 85.6824 169.896 85.0334L169.895 77.9803C169.895 77.3302 170.42 76.8051 171.07 76.8051C171.061 76.8051 172.652 76.7158 175.017 74.7288C177.547 72.598 179.368 68.1766 179.386 68.1336C179.564 67.6904 179.996 67.4016 180.474 67.4016H182.825C183.475 67.4016 184 67.9267 184 68.5768V74.4536H185.176C185.488 74.4536 185.786 74.5776 186.006 74.7981C188.828 77.62 188.828 85.3936 186.006 88.2144C185.787 88.4349 185.489 88.5588 185.177 88.5588V88.5589ZM176.259 86.2085H184.634C186.133 84.1218 186.133 78.8917 184.634 76.8049H182.825C182.175 76.8049 181.65 76.2787 181.65 75.6297V69.7518H181.241C180.562 71.2304 178.851 74.5734 176.53 76.5287C174.723 78.0463 173.22 78.689 172.246 78.9579V83.8572H173.422C173.734 83.8572 174.032 83.9811 174.252 84.2016L176.259 86.2085Z" fill="#1DAEFF"/>
<path d="M171.07 88.5588H164.018C163.368 88.5588 162.843 88.0326 162.843 87.3836L162.842 75.6286C162.842 74.9785 163.368 74.4534 164.017 74.4534H171.069C171.719 74.4534 172.244 74.9795 172.244 75.6286V87.3836C172.245 88.0337 171.719 88.5588 171.07 88.5588V88.5588ZM165.193 86.2084H169.895L169.894 76.8048H165.192L165.193 86.2084Z" fill="#1DAEFF"/>
<path d="M176.947 100.316C165.28 100.316 155.789 90.825 155.789 79.1574C155.789 67.4897 165.28 58 176.947 58C188.615 58 198.106 67.4908 198.106 79.1574C198.106 90.825 188.615 100.316 176.947 100.316ZM176.947 60.3508C166.578 60.3508 158.14 68.7872 158.14 79.1579C158.14 89.5275 166.578 97.9649 176.947 97.9649C187.317 97.9649 195.754 89.5286 195.754 79.1579C195.754 68.7882 187.317 60.3508 176.947 60.3508Z" fill="#1DAEFF"/>
<path d="M176.947 105.018C165.28 105.018 155.789 95.5272 155.789 83.8595C155.789 83.2094 156.315 82.6843 156.964 82.6843C157.614 82.6843 158.139 83.2105 158.139 83.8595C158.139 94.2291 166.577 102.667 176.946 102.667C187.316 102.667 195.753 94.2302 195.753 83.8595C195.753 83.2094 196.279 82.6843 196.928 82.6843C197.579 82.6843 198.104 83.2105 198.104 83.8595C198.106 95.5272 188.615 105.018 176.947 105.018H176.947Z" fill="#1DAEFF"/>
<path d="M156.966 85.0342C156.316 85.0342 155.791 84.5091 155.791 83.8591V79.1574C155.791 78.5073 156.317 77.9822 156.966 77.9822C157.616 77.9822 158.141 78.5083 158.141 79.1574V83.8591C158.141 84.5091 157.615 85.0342 156.966 85.0342Z" fill="#1DAEFF"/>
<path d="M196.931 85.0342C196.281 85.0342 195.756 84.5091 195.756 83.8591V79.1574C195.756 78.5073 196.282 77.9822 196.931 77.9822C197.581 77.9822 198.106 78.5083 198.106 79.1574V83.8591C198.107 84.5091 197.581 85.0342 196.931 85.0342Z" fill="#1DAEFF"/>
<path d="M73.5088 100.316C61.8411 100.316 52.3503 90.825 52.3503 79.1574C52.3503 67.4897 61.8411 58 73.5088 58C85.1764 58 94.6672 67.4908 94.6672 79.1574C94.6672 90.825 85.1764 100.316 73.5088 100.316ZM73.5088 60.3508C63.1391 60.3508 54.7017 68.7872 54.7017 79.1579C54.7017 89.5275 63.1381 97.9649 73.5088 97.9649C83.8784 97.9649 92.3158 89.5286 92.3158 79.1579C92.3158 68.7882 83.8795 60.3508 73.5088 60.3508Z" fill="#1DAEFF"/>
<path d="M73.5088 105.018C61.8411 105.018 52.3503 95.5272 52.3503 83.8595C52.3503 83.2094 52.8765 82.6843 53.5255 82.6843C54.1756 82.6843 54.7007 83.2105 54.7007 83.8595C54.7007 94.2291 63.137 102.667 73.5077 102.667C83.8774 102.667 92.3148 94.2302 92.3148 83.8595C92.3148 83.2094 92.8409 82.6843 93.49 82.6843C94.1401 82.6843 94.6651 83.2105 94.6651 83.8595C94.6672 95.5272 85.1765 105.018 73.5089 105.018H73.5088Z" fill="#1DAEFF"/>
<path d="M53.526 85.0342C52.8759 85.0342 52.3508 84.5091 52.3508 83.8591V79.1574C52.3508 78.5073 52.877 77.9822 53.526 77.9822C54.1761 77.9822 54.7012 78.5083 54.7012 79.1574V83.8591C54.7012 84.5091 54.175 85.0342 53.526 85.0342Z" fill="#1DAEFF"/>
<path d="M93.4896 85.0342C92.8395 85.0342 92.3145 84.5091 92.3145 83.8591V79.1574C92.3145 78.5073 92.8406 77.9822 93.4896 77.9822C94.1397 77.9822 94.6648 78.5083 94.6648 79.1574V83.8591C94.6659 84.5091 94.1397 85.0342 93.4896 85.0342Z" fill="#1DAEFF"/>
<path d="M73.5087 105.018C72.8586 105.018 72.3335 104.492 72.3335 103.843V99.1412C72.3335 98.4912 72.8596 97.9661 73.5087 97.9661C74.1588 97.9661 74.6839 98.4922 74.6839 99.1412V103.843C74.6839 104.492 74.1588 105.018 73.5087 105.018Z" fill="#1DAEFF"/>
<path d="M81.7355 103.246C81.0854 103.246 80.5603 102.72 80.5603 102.071V97.3695C80.5603 96.7194 81.0864 96.1943 81.7355 96.1943C82.3856 96.1943 82.9107 96.7205 82.9107 97.3695V102.071C82.9107 102.721 82.3856 103.246 81.7355 103.246Z" fill="#1DAEFF"/>
<path d="M65.2792 103.246C64.6291 103.246 64.104 102.72 64.104 102.071V97.3695C64.104 96.7194 64.6301 96.1943 65.2792 96.1943C65.9293 96.1943 66.4544 96.7205 66.4544 97.3695V102.071C66.4554 102.721 65.9293 103.246 65.2792 103.246Z" fill="#1DAEFF"/>
<path d="M70.8361 84.0786C70.1668 84.0786 69.6262 83.6724 69.6262 83.1714V70.4677C69.6262 69.9659 70.1679 69.5605 70.8361 69.5605C71.5053 69.5605 72.0459 69.9667 72.0459 70.4677V83.1714C72.0459 83.6732 71.5053 84.0786 70.8361 84.0786Z" fill="#1DAEFF"/>
<path d="M69.6261 82.869C69.6261 82.1998 69.9194 81.6592 70.2813 81.6592L79.4561 81.6592C79.8186 81.6592 80.1113 82.2008 80.1113 82.869C80.1113 83.5383 79.818 84.0789 79.4561 84.0789L70.2813 84.0789C69.9188 84.0789 69.6261 83.5383 69.6261 82.869Z" fill="#1DAEFF"/>
<path d="M135.807 121.472C135.332 121.472 134.884 121.181 134.708 120.709C134.478 120.101 134.785 119.424 135.394 119.196L154.202 112.143C154.803 111.907 155.485 112.221 155.715 112.83C155.944 113.438 155.637 114.115 155.028 114.343L136.221 121.395C136.085 121.449 135.945 121.472 135.807 121.472V121.472Z" fill="#1DAEFF"/>
<path d="M114.649 121.472C114.511 121.472 114.371 121.449 114.236 121.396L95.4291 114.344C94.821 114.117 94.5133 113.44 94.7422 112.831C94.9691 112.223 95.6538 111.908 96.2556 112.144L115.063 119.197C115.671 119.424 115.978 120.101 115.749 120.711C115.572 121.181 115.124 121.472 114.649 121.472L114.649 121.472Z" fill="#1DAEFF"/>
</svg>
