<svg width="504" height="313" viewBox="0 0 504 313" fill="none" xmlns="http://www.w3.org/2000/svg">
<path fill-rule="evenodd" clip-rule="evenodd" d="M312.868 3.5391C312.868 8.2579 305.79 8.2579 305.79 3.5391C305.79 -1.1797 312.868 -1.1797 312.868 3.5391Z" fill="#1DAEFF"/>
<path fill-rule="evenodd" clip-rule="evenodd" d="M325.618 3.5391C325.618 8.2579 318.536 8.2579 318.536 3.5391C318.536 -1.1797 325.618 -1.1797 325.618 3.5391Z" fill="#1DAEFF"/>
<path fill-rule="evenodd" clip-rule="evenodd" d="M338.358 3.5391C338.358 8.2579 331.28 8.2579 331.28 3.5391C331.28 -1.1797 338.358 -1.1797 338.358 3.5391Z" fill="#1DAEFF"/>
<path fill-rule="evenodd" clip-rule="evenodd" d="M274.648 16.2691C274.648 20.9879 267.57 20.9879 267.57 16.2691C267.57 11.5503 274.648 11.5503 274.648 16.2691Z" fill="#1DAEFF"/>
<path fill-rule="evenodd" clip-rule="evenodd" d="M300.128 16.2691C300.128 20.9879 293.05 20.9879 293.05 16.2691C293.05 11.5503 300.128 11.5503 300.128 16.2691Z" fill="#1DAEFF"/>
<path fill-rule="evenodd" clip-rule="evenodd" d="M312.868 16.2691C312.868 20.9879 305.79 20.9879 305.79 16.2691C305.79 11.5503 312.868 11.5503 312.868 16.2691Z" fill="#1DAEFF"/>
<path fill-rule="evenodd" clip-rule="evenodd" d="M325.618 16.2691C325.618 20.9879 318.536 20.9879 318.536 16.2691C318.536 11.5503 325.618 11.5503 325.618 16.2691Z" fill="#1DAEFF"/>
<path fill-rule="evenodd" clip-rule="evenodd" d="M338.358 16.2691C338.358 20.9879 331.28 20.9879 331.28 16.2691C331.28 11.5503 338.358 11.5503 338.358 16.2691Z" fill="#1DAEFF"/>
<path fill-rule="evenodd" clip-rule="evenodd" d="M351.098 16.2691C351.098 20.9879 344.02 20.9879 344.02 16.2691C344.02 11.5503 351.098 11.5503 351.098 16.2691Z" fill="#1DAEFF"/>
<path fill-rule="evenodd" clip-rule="evenodd" d="M363.838 16.2691C363.838 20.9879 356.76 20.9879 356.76 16.2691C356.76 11.5503 363.838 11.5503 363.838 16.2691Z" fill="#1DAEFF"/>
<path fill-rule="evenodd" clip-rule="evenodd" d="M376.578 16.2691C376.578 20.9879 369.5 20.9879 369.5 16.2691C369.5 11.5503 376.578 11.5503 376.578 16.2691Z" fill="#1DAEFF"/>
<path fill-rule="evenodd" clip-rule="evenodd" d="M389.318 16.2691C389.318 20.9879 382.24 20.9879 382.24 16.2691C382.24 11.5503 389.318 11.5503 389.318 16.2691Z" fill="#1DAEFF"/>
<path fill-rule="evenodd" clip-rule="evenodd" d="M210.948 29.0091C210.948 33.7279 203.87 33.7279 203.87 29.0091C203.87 24.2903 210.948 24.2903 210.948 29.0091Z" fill="#1DAEFF"/>
<path fill-rule="evenodd" clip-rule="evenodd" d="M223.688 29.0091C223.688 33.7279 216.61 33.7279 216.61 29.0091C216.61 24.2903 223.688 24.2903 223.688 29.0091Z" fill="#1DAEFF"/>
<path fill-rule="evenodd" clip-rule="evenodd" d="M236.428 29.0091C236.428 33.7279 229.35 33.7279 229.35 29.0091C229.35 24.2903 236.428 24.2903 236.428 29.0091Z" fill="#1DAEFF"/>
<path fill-rule="evenodd" clip-rule="evenodd" d="M249.168 29.0091C249.168 33.7279 242.09 33.7279 242.09 29.0091C242.09 24.2903 249.168 24.2903 249.168 29.0091Z" fill="#1DAEFF"/>
<path fill-rule="evenodd" clip-rule="evenodd" d="M261.908 29.0091C261.908 33.7279 254.83 33.7279 254.83 29.0091C254.83 24.2903 261.908 24.2903 261.908 29.0091Z" fill="#1DAEFF"/>
<path fill-rule="evenodd" clip-rule="evenodd" d="M274.648 29.0091C274.648 33.7279 267.57 33.7279 267.57 29.0091C267.57 24.2903 274.648 24.2903 274.648 29.0091Z" fill="#1DAEFF"/>
<path fill-rule="evenodd" clip-rule="evenodd" d="M287.388 29.0091C287.388 33.7279 280.31 33.7279 280.31 29.0091C280.31 24.2903 287.388 24.2903 287.388 29.0091Z" fill="#1DAEFF"/>
<path fill-rule="evenodd" clip-rule="evenodd" d="M300.128 29.0091C300.128 33.7279 293.05 33.7279 293.05 29.0091C293.05 24.2903 300.128 24.2903 300.128 29.0091Z" fill="#1DAEFF"/>
<path fill-rule="evenodd" clip-rule="evenodd" d="M312.868 29.0091C312.868 33.7279 305.79 33.7279 305.79 29.0091C305.79 24.2903 312.868 24.2903 312.868 29.0091Z" fill="#1DAEFF"/>
<path fill-rule="evenodd" clip-rule="evenodd" d="M325.618 29.0091C325.618 33.7279 318.536 33.7279 318.536 29.0091C318.536 24.2903 325.618 24.2903 325.618 29.0091Z" fill="#1DAEFF"/>
<path fill-rule="evenodd" clip-rule="evenodd" d="M338.358 29.0091C338.358 33.7279 331.28 33.7279 331.28 29.0091C331.28 24.2903 338.358 24.2903 338.358 29.0091Z" fill="#1DAEFF"/>
<path fill-rule="evenodd" clip-rule="evenodd" d="M351.098 29.0091C351.098 33.7279 344.02 33.7279 344.02 29.0091C344.02 24.2903 351.098 24.2903 351.098 29.0091Z" fill="#1DAEFF"/>
<path fill-rule="evenodd" clip-rule="evenodd" d="M363.838 29.0091C363.838 33.7279 356.76 33.7279 356.76 29.0091C356.76 24.2903 363.838 24.2903 363.838 29.0091Z" fill="#1DAEFF"/>
<path fill-rule="evenodd" clip-rule="evenodd" d="M376.578 29.0091C376.578 33.7279 369.5 33.7279 369.5 29.0091C369.5 24.2903 376.578 24.2903 376.578 29.0091Z" fill="#1DAEFF"/>
<path fill-rule="evenodd" clip-rule="evenodd" d="M389.318 29.0091C389.318 33.7279 382.24 33.7279 382.24 29.0091C382.24 24.2903 389.318 24.2903 389.318 29.0091Z" fill="#1DAEFF"/>
<path fill-rule="evenodd" clip-rule="evenodd" d="M402.058 29.0091C402.058 33.7279 394.98 33.7279 394.98 29.0091C394.98 24.2903 402.058 24.2903 402.058 29.0091Z" fill="#1DAEFF"/>
<path fill-rule="evenodd" clip-rule="evenodd" d="M427.538 29.0091C427.538 33.7279 420.46 33.7279 420.46 29.0091C420.46 24.2903 427.538 24.2903 427.538 29.0091Z" fill="#1DAEFF"/>
<path fill-rule="evenodd" clip-rule="evenodd" d="M440.288 29.0091C440.288 33.7279 433.21 33.7279 433.21 29.0091C433.21 24.2903 440.288 24.2903 440.288 29.0091Z" fill="#1DAEFF"/>
<path fill-rule="evenodd" clip-rule="evenodd" d="M491.248 29.0091C491.248 33.7279 484.17 33.7279 484.17 29.0091C484.17 24.2903 491.248 24.2903 491.248 29.0091Z" fill="#1DAEFF"/>
<path fill-rule="evenodd" clip-rule="evenodd" d="M172.708 41.7591C172.708 46.4779 165.63 46.4779 165.63 41.7591C165.63 37.0403 172.708 37.0403 172.708 41.7591Z" fill="#1DAEFF"/>
<path fill-rule="evenodd" clip-rule="evenodd" d="M185.458 41.7591C185.458 46.4779 178.376 46.4779 178.376 41.7591C178.376 37.0403 185.458 37.0403 185.458 41.7591Z" fill="#1DAEFF"/>
<path fill-rule="evenodd" clip-rule="evenodd" d="M198.208 41.7591C198.208 46.4779 191.13 46.4779 191.13 41.7591C191.13 37.0403 198.208 37.0403 198.208 41.7591Z" fill="#1DAEFF"/>
<path fill-rule="evenodd" clip-rule="evenodd" d="M210.948 41.7591C210.948 46.4779 203.87 46.4779 203.87 41.7591C203.87 37.0403 210.948 37.0403 210.948 41.7591Z" fill="#1DAEFF"/>
<path fill-rule="evenodd" clip-rule="evenodd" d="M223.688 41.7591C223.688 46.4779 216.61 46.4779 216.61 41.7591C216.61 37.0403 223.688 37.0403 223.688 41.7591Z" fill="#1DAEFF"/>
<path fill-rule="evenodd" clip-rule="evenodd" d="M236.428 41.7591C236.428 46.4779 229.35 46.4779 229.35 41.7591C229.35 37.0403 236.428 37.0403 236.428 41.7591Z" fill="#1DAEFF"/>
<path fill-rule="evenodd" clip-rule="evenodd" d="M249.168 41.7591C249.168 46.4779 242.09 46.4779 242.09 41.7591C242.09 37.0403 249.168 37.0403 249.168 41.7591Z" fill="#1DAEFF"/>
<path fill-rule="evenodd" clip-rule="evenodd" d="M261.908 41.7591C261.908 46.4779 254.83 46.4779 254.83 41.7591C254.83 37.0403 261.908 37.0403 261.908 41.7591Z" fill="#1DAEFF"/>
<path fill-rule="evenodd" clip-rule="evenodd" d="M274.648 41.7591C274.648 46.4779 267.57 46.4779 267.57 41.7591C267.57 37.0403 274.648 37.0403 274.648 41.7591Z" fill="#1DAEFF"/>
<path fill-rule="evenodd" clip-rule="evenodd" d="M287.388 41.7591C287.388 46.4779 280.31 46.4779 280.31 41.7591C280.31 37.0403 287.388 37.0403 287.388 41.7591Z" fill="#1DAEFF"/>
<path fill-rule="evenodd" clip-rule="evenodd" d="M300.128 41.7591C300.128 46.4779 293.05 46.4779 293.05 41.7591C293.05 37.0403 300.128 37.0403 300.128 41.7591Z" fill="#1DAEFF"/>
<path fill-rule="evenodd" clip-rule="evenodd" d="M312.868 41.7591C312.868 46.4779 305.79 46.4779 305.79 41.7591C305.79 37.0403 312.868 37.0403 312.868 41.7591Z" fill="#1DAEFF"/>
<path fill-rule="evenodd" clip-rule="evenodd" d="M325.618 41.7591C325.618 46.4779 318.536 46.4779 318.536 41.7591C318.536 37.0403 325.618 37.0403 325.618 41.7591Z" fill="#1DAEFF"/>
<path fill-rule="evenodd" clip-rule="evenodd" d="M338.358 41.7591C338.358 46.4779 331.28 46.4779 331.28 41.7591C331.28 37.0403 338.358 37.0403 338.358 41.7591Z" fill="#1DAEFF"/>
<path fill-rule="evenodd" clip-rule="evenodd" d="M351.098 41.7591C351.098 46.4779 344.02 46.4779 344.02 41.7591C344.02 37.0403 351.098 37.0403 351.098 41.7591Z" fill="#1DAEFF"/>
<path fill-rule="evenodd" clip-rule="evenodd" d="M363.838 41.7591C363.838 46.4779 356.76 46.4779 356.76 41.7591C356.76 37.0403 363.838 37.0403 363.838 41.7591Z" fill="#1DAEFF"/>
<path fill-rule="evenodd" clip-rule="evenodd" d="M376.578 41.7591C376.578 46.4779 369.5 46.4779 369.5 41.7591C369.5 37.0403 376.578 37.0403 376.578 41.7591Z" fill="#1DAEFF"/>
<path fill-rule="evenodd" clip-rule="evenodd" d="M389.318 41.7591C389.318 46.4779 382.24 46.4779 382.24 41.7591C382.24 37.0403 389.318 37.0403 389.318 41.7591Z" fill="#1DAEFF"/>
<path fill-rule="evenodd" clip-rule="evenodd" d="M402.058 41.7591C402.058 46.4779 394.98 46.4779 394.98 41.7591C394.98 37.0403 402.058 37.0403 402.058 41.7591Z" fill="#1DAEFF"/>
<path fill-rule="evenodd" clip-rule="evenodd" d="M414.798 41.7591C414.798 46.4779 407.72 46.4779 407.72 41.7591C407.72 37.0403 414.798 37.0403 414.798 41.7591Z" fill="#1DAEFF"/>
<path fill-rule="evenodd" clip-rule="evenodd" d="M427.538 41.7591C427.538 46.4779 420.46 46.4779 420.46 41.7591C420.46 37.0403 427.538 37.0403 427.538 41.7591Z" fill="#1DAEFF"/>
<path fill-rule="evenodd" clip-rule="evenodd" d="M440.288 41.7591C440.288 46.4779 433.21 46.4779 433.21 41.7591C433.21 37.0403 440.288 37.0403 440.288 41.7591Z" fill="#1DAEFF"/>
<path fill-rule="evenodd" clip-rule="evenodd" d="M453.028 41.7591C453.028 46.4779 445.95 46.4779 445.95 41.7591C445.95 37.0403 453.028 37.0403 453.028 41.7591Z" fill="#1DAEFF"/>
<path fill-rule="evenodd" clip-rule="evenodd" d="M465.768 41.7591C465.768 46.4779 458.69 46.4779 458.69 41.7591C458.69 37.0403 465.768 37.0403 465.768 41.7591Z" fill="#1DAEFF"/>
<path fill-rule="evenodd" clip-rule="evenodd" d="M478.508 41.7591C478.508 46.4779 471.43 46.4779 471.43 41.7591C471.43 37.0403 478.508 37.0403 478.508 41.7591Z" fill="#1DAEFF"/>
<path fill-rule="evenodd" clip-rule="evenodd" d="M491.248 41.7591C491.248 46.4779 484.17 46.4779 484.17 41.7591C484.17 37.0403 491.248 37.0403 491.248 41.7591Z" fill="#1DAEFF"/>
<path fill-rule="evenodd" clip-rule="evenodd" d="M503.998 41.7591C503.998 46.4779 496.92 46.4779 496.92 41.7591C496.92 37.0403 503.998 37.0403 503.998 41.7591Z" fill="#1DAEFF"/>
<path fill-rule="evenodd" clip-rule="evenodd" d="M159.978 54.4991C159.978 59.2179 152.9 59.2179 152.9 54.4991C152.9 49.7803 159.978 49.7803 159.978 54.4991Z" fill="#1DAEFF"/>
<path fill-rule="evenodd" clip-rule="evenodd" d="M172.708 54.4991C172.708 59.2179 165.63 59.2179 165.63 54.4991C165.63 49.7803 172.708 49.7803 172.708 54.4991Z" fill="#1DAEFF"/>
<path fill-rule="evenodd" clip-rule="evenodd" d="M185.458 54.4991C185.458 59.2179 178.376 59.2179 178.376 54.4991C178.376 49.7803 185.458 49.7803 185.458 54.4991Z" fill="#1DAEFF"/>
<path fill-rule="evenodd" clip-rule="evenodd" d="M198.208 54.4991C198.208 59.2179 191.13 59.2179 191.13 54.4991C191.13 49.7803 198.208 49.7803 198.208 54.4991Z" fill="#1DAEFF"/>
<path fill-rule="evenodd" clip-rule="evenodd" d="M210.948 54.4991C210.948 59.2179 203.87 59.2179 203.87 54.4991C203.87 49.7803 210.948 49.7803 210.948 54.4991Z" fill="#1DAEFF"/>
<path fill-rule="evenodd" clip-rule="evenodd" d="M223.688 54.4991C223.688 59.2179 216.61 59.2179 216.61 54.4991C216.61 49.7803 223.688 49.7803 223.688 54.4991Z" fill="#1DAEFF"/>
<path fill-rule="evenodd" clip-rule="evenodd" d="M236.428 54.4991C236.428 59.2179 229.35 59.2179 229.35 54.4991C229.35 49.7803 236.428 49.7803 236.428 54.4991Z" fill="#1DAEFF"/>
<path fill-rule="evenodd" clip-rule="evenodd" d="M249.168 54.4991C249.168 59.2179 242.09 59.2179 242.09 54.4991C242.09 49.7803 249.168 49.7803 249.168 54.4991Z" fill="#1DAEFF"/>
<path fill-rule="evenodd" clip-rule="evenodd" d="M261.908 54.4991C261.908 59.2179 254.83 59.2179 254.83 54.4991C254.83 49.7803 261.908 49.7803 261.908 54.4991Z" fill="#1DAEFF"/>
<path fill-rule="evenodd" clip-rule="evenodd" d="M274.648 54.4991C274.648 59.2179 267.57 59.2179 267.57 54.4991C267.57 49.7803 274.648 49.7803 274.648 54.4991Z" fill="#1DAEFF"/>
<path fill-rule="evenodd" clip-rule="evenodd" d="M287.388 54.4991C287.388 59.2179 280.31 59.2179 280.31 54.4991C280.31 49.7803 287.388 49.7803 287.388 54.4991Z" fill="#1DAEFF"/>
<path fill-rule="evenodd" clip-rule="evenodd" d="M300.128 54.4991C300.128 59.2179 293.05 59.2179 293.05 54.4991C293.05 49.7803 300.128 49.7803 300.128 54.4991Z" fill="#1DAEFF"/>
<path fill-rule="evenodd" clip-rule="evenodd" d="M312.868 54.4991C312.868 59.2179 305.79 59.2179 305.79 54.4991C305.79 49.7803 312.868 49.7803 312.868 54.4991Z" fill="#1DAEFF"/>
<path fill-rule="evenodd" clip-rule="evenodd" d="M325.618 54.4991C325.618 59.2179 318.536 59.2179 318.536 54.4991C318.536 49.7803 325.618 49.7803 325.618 54.4991Z" fill="#1DAEFF"/>
<path fill-rule="evenodd" clip-rule="evenodd" d="M338.358 54.4991C338.358 59.2179 331.28 59.2179 331.28 54.4991C331.28 49.7803 338.358 49.7803 338.358 54.4991Z" fill="#1DAEFF"/>
<path fill-rule="evenodd" clip-rule="evenodd" d="M351.098 54.4991C351.098 59.2179 344.02 59.2179 344.02 54.4991C344.02 49.7803 351.098 49.7803 351.098 54.4991Z" fill="#1DAEFF"/>
<path fill-rule="evenodd" clip-rule="evenodd" d="M363.838 54.4991C363.838 59.2179 356.76 59.2179 356.76 54.4991C356.76 49.7803 363.838 49.7803 363.838 54.4991Z" fill="#1DAEFF"/>
<path fill-rule="evenodd" clip-rule="evenodd" d="M376.578 54.4991C376.578 59.2179 369.5 59.2179 369.5 54.4991C369.5 49.7803 376.578 49.7803 376.578 54.4991Z" fill="#1DAEFF"/>
<path fill-rule="evenodd" clip-rule="evenodd" d="M389.318 54.4991C389.318 59.2179 382.24 59.2179 382.24 54.4991C382.24 49.7803 389.318 49.7803 389.318 54.4991Z" fill="#1DAEFF"/>
<path fill-rule="evenodd" clip-rule="evenodd" d="M402.058 54.4991C402.058 59.2179 394.98 59.2179 394.98 54.4991C394.98 49.7803 402.058 49.7803 402.058 54.4991Z" fill="#1DAEFF"/>
<path fill-rule="evenodd" clip-rule="evenodd" d="M414.798 54.4991C414.798 59.2179 407.72 59.2179 407.72 54.4991C407.72 49.7803 414.798 49.7803 414.798 54.4991Z" fill="#1DAEFF"/>
<path fill-rule="evenodd" clip-rule="evenodd" d="M427.538 54.4991C427.538 59.2179 420.46 59.2179 420.46 54.4991C420.46 49.7803 427.538 49.7803 427.538 54.4991Z" fill="#1DAEFF"/>
<path fill-rule="evenodd" clip-rule="evenodd" d="M440.288 54.4991C440.288 59.2179 433.21 59.2179 433.21 54.4991C433.21 49.7803 440.288 49.7803 440.288 54.4991Z" fill="#1DAEFF"/>
<path fill-rule="evenodd" clip-rule="evenodd" d="M453.028 54.4991C453.028 59.2179 445.95 59.2179 445.95 54.4991C445.95 49.7803 453.028 49.7803 453.028 54.4991Z" fill="#1DAEFF"/>
<path fill-rule="evenodd" clip-rule="evenodd" d="M465.768 54.4991C465.768 59.2179 458.69 59.2179 458.69 54.4991C458.69 49.7803 465.768 49.7803 465.768 54.4991Z" fill="#1DAEFF"/>
<path fill-rule="evenodd" clip-rule="evenodd" d="M478.508 54.4991C478.508 59.2179 471.43 59.2179 471.43 54.4991C471.43 49.7803 478.508 49.7803 478.508 54.4991Z" fill="#1DAEFF"/>
<path fill-rule="evenodd" clip-rule="evenodd" d="M134.498 67.229C134.498 71.9478 127.42 71.9478 127.42 67.229C127.42 62.5102 134.498 62.5102 134.498 67.229Z" fill="#1DAEFF"/>
<path fill-rule="evenodd" clip-rule="evenodd" d="M147.228 67.229C147.228 71.9478 140.15 71.9478 140.15 67.229C140.15 62.5102 147.228 62.5102 147.228 67.229Z" fill="#1DAEFF"/>
<path fill-rule="evenodd" clip-rule="evenodd" d="M159.978 67.229C159.978 71.9478 152.9 71.9478 152.9 67.229C152.9 62.5102 159.978 62.5102 159.978 67.229Z" fill="#1DAEFF"/>
<path fill-rule="evenodd" clip-rule="evenodd" d="M172.708 67.229C172.708 71.9478 165.63 71.9478 165.63 67.229C165.63 62.5102 172.708 62.5102 172.708 67.229Z" fill="#1DAEFF"/>
<path fill-rule="evenodd" clip-rule="evenodd" d="M185.458 67.229C185.458 71.9478 178.376 71.9478 178.376 67.229C178.376 62.5102 185.458 62.5102 185.458 67.229Z" fill="#1DAEFF"/>
<path fill-rule="evenodd" clip-rule="evenodd" d="M198.208 67.229C198.208 71.9478 191.13 71.9478 191.13 67.229C191.13 62.5102 198.208 62.5102 198.208 67.229Z" fill="#1DAEFF"/>
<path fill-rule="evenodd" clip-rule="evenodd" d="M210.948 67.229C210.948 71.9478 203.87 71.9478 203.87 67.229C203.87 62.5102 210.948 62.5102 210.948 67.229Z" fill="#1DAEFF"/>
<path fill-rule="evenodd" clip-rule="evenodd" d="M223.688 67.229C223.688 71.9478 216.61 71.9478 216.61 67.229C216.61 62.5102 223.688 62.5102 223.688 67.229Z" fill="#1DAEFF"/>
<path fill-rule="evenodd" clip-rule="evenodd" d="M236.428 67.229C236.428 71.9478 229.35 71.9478 229.35 67.229C229.35 62.5102 236.428 62.5102 236.428 67.229Z" fill="#1DAEFF"/>
<path fill-rule="evenodd" clip-rule="evenodd" d="M249.168 67.229C249.168 71.9478 242.09 71.9478 242.09 67.229C242.09 62.5102 249.168 62.5102 249.168 67.229Z" fill="#1DAEFF"/>
<path fill-rule="evenodd" clip-rule="evenodd" d="M261.908 67.229C261.908 71.9478 254.83 71.9478 254.83 67.229C254.83 62.5102 261.908 62.5102 261.908 67.229Z" fill="#1DAEFF"/>
<path fill-rule="evenodd" clip-rule="evenodd" d="M274.648 67.229C274.648 71.9478 267.57 71.9478 267.57 67.229C267.57 62.5102 274.648 62.5102 274.648 67.229Z" fill="#1DAEFF"/>
<path fill-rule="evenodd" clip-rule="evenodd" d="M287.388 67.229C287.388 71.9478 280.31 71.9478 280.31 67.229C280.31 62.5102 287.388 62.5102 287.388 67.229Z" fill="#1DAEFF"/>
<path fill-rule="evenodd" clip-rule="evenodd" d="M300.128 67.229C300.128 71.9478 293.05 71.9478 293.05 67.229C293.05 62.5102 300.128 62.5102 300.128 67.229Z" fill="#1DAEFF"/>
<path fill-rule="evenodd" clip-rule="evenodd" d="M312.868 67.229C312.868 71.9478 305.79 71.9478 305.79 67.229C305.79 62.5102 312.868 62.5102 312.868 67.229Z" fill="#1DAEFF"/>
<path fill-rule="evenodd" clip-rule="evenodd" d="M325.618 67.229C325.618 71.9478 318.536 71.9478 318.536 67.229C318.536 62.5102 325.618 62.5102 325.618 67.229Z" fill="#1DAEFF"/>
<path fill-rule="evenodd" clip-rule="evenodd" d="M338.358 67.229C338.358 71.9478 331.28 71.9478 331.28 67.229C331.28 62.5102 338.358 62.5102 338.358 67.229Z" fill="#1DAEFF"/>
<path fill-rule="evenodd" clip-rule="evenodd" d="M351.098 67.229C351.098 71.9478 344.02 71.9478 344.02 67.229C344.02 62.5102 351.098 62.5102 351.098 67.229Z" fill="#1DAEFF"/>
<path fill-rule="evenodd" clip-rule="evenodd" d="M363.838 67.229C363.838 71.9478 356.76 71.9478 356.76 67.229C356.76 62.5102 363.838 62.5102 363.838 67.229Z" fill="#1DAEFF"/>
<path fill-rule="evenodd" clip-rule="evenodd" d="M376.578 67.229C376.578 71.9478 369.5 71.9478 369.5 67.229C369.5 62.5102 376.578 62.5102 376.578 67.229Z" fill="#1DAEFF"/>
<path fill-rule="evenodd" clip-rule="evenodd" d="M389.318 67.229C389.318 71.9478 382.24 71.9478 382.24 67.229C382.24 62.5102 389.318 62.5102 389.318 67.229Z" fill="#1DAEFF"/>
<path fill-rule="evenodd" clip-rule="evenodd" d="M402.058 67.229C402.058 71.9478 394.98 71.9478 394.98 67.229C394.98 62.5102 402.058 62.5102 402.058 67.229Z" fill="#1DAEFF"/>
<path fill-rule="evenodd" clip-rule="evenodd" d="M414.798 67.229C414.798 71.9478 407.72 71.9478 407.72 67.229C407.72 62.5102 414.798 62.5102 414.798 67.229Z" fill="#1DAEFF"/>
<path fill-rule="evenodd" clip-rule="evenodd" d="M427.538 67.229C427.538 71.9478 420.46 71.9478 420.46 67.229C420.46 62.5102 427.538 62.5102 427.538 67.229Z" fill="#1DAEFF"/>
<path fill-rule="evenodd" clip-rule="evenodd" d="M440.288 67.229C440.288 71.9478 433.21 71.9478 433.21 67.229C433.21 62.5102 440.288 62.5102 440.288 67.229Z" fill="#1DAEFF"/>
<path fill-rule="evenodd" clip-rule="evenodd" d="M453.028 67.229C453.028 71.9478 445.95 71.9478 445.95 67.229C445.95 62.5102 453.028 62.5102 453.028 67.229Z" fill="#1DAEFF"/>
<path fill-rule="evenodd" clip-rule="evenodd" d="M465.768 67.229C465.768 71.9478 458.69 71.9478 458.69 67.229C458.69 62.5102 465.768 62.5102 465.768 67.229Z" fill="#1DAEFF"/>
<path fill-rule="evenodd" clip-rule="evenodd" d="M478.508 67.229C478.508 71.9478 471.43 71.9478 471.43 67.229C471.43 62.5102 478.508 62.5102 478.508 67.229Z" fill="#1DAEFF"/>
<path fill-rule="evenodd" clip-rule="evenodd" d="M147.228 79.979C147.228 84.6978 140.15 84.6978 140.15 79.979C140.15 75.2602 147.228 75.2602 147.228 79.979Z" fill="#1DAEFF"/>
<path fill-rule="evenodd" clip-rule="evenodd" d="M159.978 79.979C159.978 84.6978 152.9 84.6978 152.9 79.979C152.9 75.2602 159.978 75.2602 159.978 79.979Z" fill="#1DAEFF"/>
<path fill-rule="evenodd" clip-rule="evenodd" d="M172.708 79.979C172.708 84.6978 165.63 84.6978 165.63 79.979C165.63 75.2602 172.708 75.2602 172.708 79.979Z" fill="#1DAEFF"/>
<path fill-rule="evenodd" clip-rule="evenodd" d="M185.458 79.979C185.458 84.6978 178.376 84.6978 178.376 79.979C178.376 75.2602 185.458 75.2602 185.458 79.979Z" fill="#1DAEFF"/>
<path fill-rule="evenodd" clip-rule="evenodd" d="M198.208 79.979C198.208 84.6978 191.13 84.6978 191.13 79.979C191.13 75.2602 198.208 75.2602 198.208 79.979Z" fill="#1DAEFF"/>
<path fill-rule="evenodd" clip-rule="evenodd" d="M210.948 79.979C210.948 84.6978 203.87 84.6978 203.87 79.979C203.87 75.2602 210.948 75.2602 210.948 79.979Z" fill="#1DAEFF"/>
<path fill-rule="evenodd" clip-rule="evenodd" d="M223.688 79.979C223.688 84.6978 216.61 84.6978 216.61 79.979C216.61 75.2602 223.688 75.2602 223.688 79.979Z" fill="#1DAEFF"/>
<path fill-rule="evenodd" clip-rule="evenodd" d="M236.428 79.979C236.428 84.6978 229.35 84.6978 229.35 79.979C229.35 75.2602 236.428 75.2602 236.428 79.979Z" fill="#1DAEFF"/>
<path fill-rule="evenodd" clip-rule="evenodd" d="M249.168 79.979C249.168 84.6978 242.09 84.6978 242.09 79.979C242.09 75.2602 249.168 75.2602 249.168 79.979Z" fill="#1DAEFF"/>
<path fill-rule="evenodd" clip-rule="evenodd" d="M261.908 79.979C261.908 84.6978 254.83 84.6978 254.83 79.979C254.83 75.2602 261.908 75.2602 261.908 79.979Z" fill="#1DAEFF"/>
<path fill-rule="evenodd" clip-rule="evenodd" d="M274.648 79.979C274.648 84.6978 267.57 84.6978 267.57 79.979C267.57 75.2602 274.648 75.2602 274.648 79.979Z" fill="#1DAEFF"/>
<path fill-rule="evenodd" clip-rule="evenodd" d="M287.388 79.979C287.388 84.6978 280.31 84.6978 280.31 79.979C280.31 75.2602 287.388 75.2602 287.388 79.979Z" fill="#1DAEFF"/>
<path fill-rule="evenodd" clip-rule="evenodd" d="M300.128 79.979C300.128 84.6978 293.05 84.6978 293.05 79.979C293.05 75.2602 300.128 75.2602 300.128 79.979Z" fill="#1DAEFF"/>
<path fill-rule="evenodd" clip-rule="evenodd" d="M312.868 79.979C312.868 84.6978 305.79 84.6978 305.79 79.979C305.79 75.2602 312.868 75.2602 312.868 79.979Z" fill="#1DAEFF"/>
<path fill-rule="evenodd" clip-rule="evenodd" d="M325.618 79.979C325.618 84.6978 318.536 84.6978 318.536 79.979C318.536 75.2602 325.618 75.2602 325.618 79.979Z" fill="#1DAEFF"/>
<path fill-rule="evenodd" clip-rule="evenodd" d="M338.358 79.979C338.358 84.6978 331.28 84.6978 331.28 79.979C331.28 75.2602 338.358 75.2602 338.358 79.979Z" fill="#1DAEFF"/>
<path fill-rule="evenodd" clip-rule="evenodd" d="M351.098 79.979C351.098 84.6978 344.02 84.6978 344.02 79.979C344.02 75.2602 351.098 75.2602 351.098 79.979Z" fill="#1DAEFF"/>
<path fill-rule="evenodd" clip-rule="evenodd" d="M363.838 79.979C363.838 84.6978 356.76 84.6978 356.76 79.979C356.76 75.2602 363.838 75.2602 363.838 79.979Z" fill="#1DAEFF"/>
<path fill-rule="evenodd" clip-rule="evenodd" d="M376.578 79.979C376.578 84.6978 369.5 84.6978 369.5 79.979C369.5 75.2602 376.578 75.2602 376.578 79.979Z" fill="#1DAEFF"/>
<path fill-rule="evenodd" clip-rule="evenodd" d="M389.318 79.979C389.318 84.6978 382.24 84.6978 382.24 79.979C382.24 75.2602 389.318 75.2602 389.318 79.979Z" fill="#1DAEFF"/>
<path fill-rule="evenodd" clip-rule="evenodd" d="M402.058 79.979C402.058 84.6978 394.98 84.6978 394.98 79.979C394.98 75.2602 402.058 75.2602 402.058 79.979Z" fill="#1DAEFF"/>
<path fill-rule="evenodd" clip-rule="evenodd" d="M414.798 79.979C414.798 84.6978 407.72 84.6978 407.72 79.979C407.72 75.2602 414.798 75.2602 414.798 79.979Z" fill="#1DAEFF"/>
<path fill-rule="evenodd" clip-rule="evenodd" d="M427.538 79.979C427.538 84.6978 420.46 84.6978 420.46 79.979C420.46 75.2602 427.538 75.2602 427.538 79.979Z" fill="#1DAEFF"/>
<path fill-rule="evenodd" clip-rule="evenodd" d="M440.288 79.979C440.288 84.6978 433.21 84.6978 433.21 79.979C433.21 75.2602 440.288 75.2602 440.288 79.979Z" fill="#1DAEFF"/>
<path fill-rule="evenodd" clip-rule="evenodd" d="M453.028 79.979C453.028 84.6978 445.95 84.6978 445.95 79.979C445.95 75.2602 453.028 75.2602 453.028 79.979Z" fill="#1DAEFF"/>
<path fill-rule="evenodd" clip-rule="evenodd" d="M465.768 79.979C465.768 84.6978 458.69 84.6978 458.69 79.979C458.69 75.2602 465.768 75.2602 465.768 79.979Z" fill="#1DAEFF"/>
<path fill-rule="evenodd" clip-rule="evenodd" d="M58.0381 92.719C58.0381 97.4378 50.96 97.4378 50.96 92.719C50.96 88.0002 58.0381 88.0002 58.0381 92.719Z" fill="#1DAEFF"/>
<path fill-rule="evenodd" clip-rule="evenodd" d="M70.7881 92.719C70.7881 97.4378 63.71 97.4378 63.71 92.719C63.71 88.0002 70.7881 88.0002 70.7881 92.719Z" fill="#1DAEFF"/>
<path fill-rule="evenodd" clip-rule="evenodd" d="M109.008 92.719C109.008 97.4378 101.93 97.4378 101.93 92.719C101.93 88.0002 109.008 88.0002 109.008 92.719Z" fill="#1DAEFF"/>
<path fill-rule="evenodd" clip-rule="evenodd" d="M121.748 92.719C121.748 97.4378 114.67 97.4378 114.67 92.719C114.67 88.0002 121.748 88.0002 121.748 92.719Z" fill="#1DAEFF"/>
<path fill-rule="evenodd" clip-rule="evenodd" d="M134.498 92.719C134.498 97.4378 127.42 97.4378 127.42 92.719C127.42 88.0002 134.498 88.0002 134.498 92.719Z" fill="#1DAEFF"/>
<path fill-rule="evenodd" clip-rule="evenodd" d="M147.228 92.719C147.228 97.4378 140.15 97.4378 140.15 92.719C140.15 88.0002 147.228 88.0002 147.228 92.719Z" fill="#1DAEFF"/>
<path fill-rule="evenodd" clip-rule="evenodd" d="M159.978 92.719C159.978 97.4378 152.9 97.4378 152.9 92.719C152.9 88.0002 159.978 88.0002 159.978 92.719Z" fill="#1DAEFF"/>
<path fill-rule="evenodd" clip-rule="evenodd" d="M172.708 92.719C172.708 97.4378 165.63 97.4378 165.63 92.719C165.63 88.0002 172.708 88.0002 172.708 92.719Z" fill="#1DAEFF"/>
<path fill-rule="evenodd" clip-rule="evenodd" d="M185.458 92.719C185.458 97.4378 178.376 97.4378 178.376 92.719C178.376 88.0002 185.458 88.0002 185.458 92.719Z" fill="#1DAEFF"/>
<path fill-rule="evenodd" clip-rule="evenodd" d="M198.208 92.719C198.208 97.4378 191.13 97.4378 191.13 92.719C191.13 88.0002 198.208 88.0002 198.208 92.719Z" fill="#1DAEFF"/>
<path fill-rule="evenodd" clip-rule="evenodd" d="M210.948 92.719C210.948 97.4378 203.87 97.4378 203.87 92.719C203.87 88.0002 210.948 88.0002 210.948 92.719Z" fill="#1DAEFF"/>
<path fill-rule="evenodd" clip-rule="evenodd" d="M223.688 92.719C223.688 97.4378 216.61 97.4378 216.61 92.719C216.61 88.0002 223.688 88.0002 223.688 92.719Z" fill="#1DAEFF"/>
<path fill-rule="evenodd" clip-rule="evenodd" d="M236.428 92.719C236.428 97.4378 229.35 97.4378 229.35 92.719C229.35 88.0002 236.428 88.0002 236.428 92.719Z" fill="#1DAEFF"/>
<path fill-rule="evenodd" clip-rule="evenodd" d="M249.168 92.719C249.168 97.4378 242.09 97.4378 242.09 92.719C242.09 88.0002 249.168 88.0002 249.168 92.719Z" fill="#1DAEFF"/>
<path fill-rule="evenodd" clip-rule="evenodd" d="M261.908 92.719C261.908 97.4378 254.83 97.4378 254.83 92.719C254.83 88.0002 261.908 88.0002 261.908 92.719Z" fill="#1DAEFF"/>
<path fill-rule="evenodd" clip-rule="evenodd" d="M274.648 92.719C274.648 97.4378 267.57 97.4378 267.57 92.719C267.57 88.0002 274.648 88.0002 274.648 92.719Z" fill="#1DAEFF"/>
<path fill-rule="evenodd" clip-rule="evenodd" d="M287.388 92.719C287.388 97.4378 280.31 97.4378 280.31 92.719C280.31 88.0002 287.388 88.0002 287.388 92.719Z" fill="#1DAEFF"/>
<path fill-rule="evenodd" clip-rule="evenodd" d="M300.128 92.719C300.128 97.4378 293.05 97.4378 293.05 92.719C293.05 88.0002 300.128 88.0002 300.128 92.719Z" fill="#1DAEFF"/>
<path fill-rule="evenodd" clip-rule="evenodd" d="M312.868 92.719C312.868 97.4378 305.79 97.4378 305.79 92.719C305.79 88.0002 312.868 88.0002 312.868 92.719Z" fill="#1DAEFF"/>
<path fill-rule="evenodd" clip-rule="evenodd" d="M325.618 92.719C325.618 97.4378 318.536 97.4378 318.536 92.719C318.536 88.0002 325.618 88.0002 325.618 92.719Z" fill="#1DAEFF"/>
<path fill-rule="evenodd" clip-rule="evenodd" d="M338.358 92.719C338.358 97.4378 331.28 97.4378 331.28 92.719C331.28 88.0002 338.358 88.0002 338.358 92.719Z" fill="#1DAEFF"/>
<path fill-rule="evenodd" clip-rule="evenodd" d="M351.098 92.719C351.098 97.4378 344.02 97.4378 344.02 92.719C344.02 88.0002 351.098 88.0002 351.098 92.719Z" fill="#1DAEFF"/>
<path fill-rule="evenodd" clip-rule="evenodd" d="M363.838 92.719C363.838 97.4378 356.76 97.4378 356.76 92.719C356.76 88.0002 363.838 88.0002 363.838 92.719Z" fill="#1DAEFF"/>
<path fill-rule="evenodd" clip-rule="evenodd" d="M376.578 92.719C376.578 97.4378 369.5 97.4378 369.5 92.719C369.5 88.0002 376.578 88.0002 376.578 92.719Z" fill="#1DAEFF"/>
<path fill-rule="evenodd" clip-rule="evenodd" d="M389.318 92.719C389.318 97.4378 382.24 97.4378 382.24 92.719C382.24 88.0002 389.318 88.0002 389.318 92.719Z" fill="#1DAEFF"/>
<path fill-rule="evenodd" clip-rule="evenodd" d="M402.058 92.719C402.058 97.4378 394.98 97.4378 394.98 92.719C394.98 88.0002 402.058 88.0002 402.058 92.719Z" fill="#1DAEFF"/>
<path fill-rule="evenodd" clip-rule="evenodd" d="M414.798 92.719C414.798 97.4378 407.72 97.4378 407.72 92.719C407.72 88.0002 414.798 88.0002 414.798 92.719Z" fill="#1DAEFF"/>
<path fill-rule="evenodd" clip-rule="evenodd" d="M427.538 92.719C427.538 97.4378 420.46 97.4378 420.46 92.719C420.46 88.0002 427.538 88.0002 427.538 92.719Z" fill="#1DAEFF"/>
<path fill-rule="evenodd" clip-rule="evenodd" d="M440.288 92.719C440.288 97.4378 433.21 97.4378 433.21 92.719C433.21 88.0002 440.288 88.0002 440.288 92.719Z" fill="#1DAEFF"/>
<path fill-rule="evenodd" clip-rule="evenodd" d="M453.028 92.719C453.028 97.4378 445.95 97.4378 445.95 92.719C445.95 88.0002 453.028 88.0002 453.028 92.719Z" fill="#1DAEFF"/>
<path fill-rule="evenodd" clip-rule="evenodd" d="M465.768 92.719C465.768 97.4378 458.69 97.4378 458.69 92.719C458.69 88.0002 465.768 88.0002 465.768 92.719Z" fill="#1DAEFF"/>
<path fill-rule="evenodd" clip-rule="evenodd" d="M32.5581 105.469C32.5581 110.188 25.48 110.188 25.48 105.469C25.48 100.75 32.5581 100.75 32.5581 105.469Z" fill="#1DAEFF"/>
<path fill-rule="evenodd" clip-rule="evenodd" d="M45.2983 105.469C45.2983 110.188 38.2202 110.188 38.2202 105.469C38.2202 100.75 45.2983 100.75 45.2983 105.469Z" fill="#1DAEFF"/>
<path fill-rule="evenodd" clip-rule="evenodd" d="M58.0381 105.469C58.0381 110.188 50.96 110.188 50.96 105.469C50.96 100.75 58.0381 100.75 58.0381 105.469Z" fill="#1DAEFF"/>
<path fill-rule="evenodd" clip-rule="evenodd" d="M70.7881 105.469C70.7881 110.188 63.71 110.188 63.71 105.469C63.71 100.75 70.7881 100.75 70.7881 105.469Z" fill="#1DAEFF"/>
<path fill-rule="evenodd" clip-rule="evenodd" d="M83.5283 105.469C83.5283 110.188 76.4502 110.188 76.4502 105.469C76.4502 100.75 83.5283 100.75 83.5283 105.469Z" fill="#1DAEFF"/>
<path fill-rule="evenodd" clip-rule="evenodd" d="M147.228 105.469C147.228 110.188 140.15 110.188 140.15 105.469C140.15 100.75 147.228 100.75 147.228 105.469Z" fill="#1DAEFF"/>
<path fill-rule="evenodd" clip-rule="evenodd" d="M159.978 105.469C159.978 110.188 152.9 110.188 152.9 105.469C152.9 100.75 159.978 100.75 159.978 105.469Z" fill="#1DAEFF"/>
<path fill-rule="evenodd" clip-rule="evenodd" d="M172.708 105.469C172.708 110.188 165.63 110.188 165.63 105.469C165.63 100.75 172.708 100.75 172.708 105.469Z" fill="#1DAEFF"/>
<path fill-rule="evenodd" clip-rule="evenodd" d="M185.458 105.469C185.458 110.188 178.376 110.188 178.376 105.469C178.376 100.75 185.458 100.75 185.458 105.469Z" fill="#1DAEFF"/>
<path fill-rule="evenodd" clip-rule="evenodd" d="M198.208 105.469C198.208 110.188 191.13 110.188 191.13 105.469C191.13 100.75 198.208 100.75 198.208 105.469Z" fill="#1DAEFF"/>
<path fill-rule="evenodd" clip-rule="evenodd" d="M210.948 105.469C210.948 110.188 203.87 110.188 203.87 105.469C203.87 100.75 210.948 100.75 210.948 105.469Z" fill="#1DAEFF"/>
<path fill-rule="evenodd" clip-rule="evenodd" d="M223.688 105.469C223.688 110.188 216.61 110.188 216.61 105.469C216.61 100.75 223.688 100.75 223.688 105.469Z" fill="#1DAEFF"/>
<path fill-rule="evenodd" clip-rule="evenodd" d="M236.428 105.469C236.428 110.188 229.35 110.188 229.35 105.469C229.35 100.75 236.428 100.75 236.428 105.469Z" fill="#1DAEFF"/>
<path fill-rule="evenodd" clip-rule="evenodd" d="M249.168 105.469C249.168 110.188 242.09 110.188 242.09 105.469C242.09 100.75 249.168 100.75 249.168 105.469Z" fill="#1DAEFF"/>
<path fill-rule="evenodd" clip-rule="evenodd" d="M261.908 105.469C261.908 110.188 254.83 110.188 254.83 105.469C254.83 100.75 261.908 100.75 261.908 105.469Z" fill="#1DAEFF"/>
<path fill-rule="evenodd" clip-rule="evenodd" d="M274.648 105.469C274.648 110.188 267.57 110.188 267.57 105.469C267.57 100.75 274.648 100.75 274.648 105.469Z" fill="#1DAEFF"/>
<path fill-rule="evenodd" clip-rule="evenodd" d="M287.388 105.469C287.388 110.188 280.31 110.188 280.31 105.469C280.31 100.75 287.388 100.75 287.388 105.469Z" fill="#1DAEFF"/>
<path fill-rule="evenodd" clip-rule="evenodd" d="M300.128 105.469C300.128 110.188 293.05 110.188 293.05 105.469C293.05 100.75 300.128 100.75 300.128 105.469Z" fill="#1DAEFF"/>
<path fill-rule="evenodd" clip-rule="evenodd" d="M312.868 105.469C312.868 110.188 305.79 110.188 305.79 105.469C305.79 100.75 312.868 100.75 312.868 105.469Z" fill="#1DAEFF"/>
<path fill-rule="evenodd" clip-rule="evenodd" d="M325.618 105.469C325.618 110.188 318.536 110.188 318.536 105.469C318.536 100.75 325.618 100.75 325.618 105.469Z" fill="#1DAEFF"/>
<path fill-rule="evenodd" clip-rule="evenodd" d="M338.358 105.469C338.358 110.188 331.28 110.188 331.28 105.469C331.28 100.75 338.358 100.75 338.358 105.469Z" fill="#1DAEFF"/>
<path fill-rule="evenodd" clip-rule="evenodd" d="M351.098 105.469C351.098 110.188 344.02 110.188 344.02 105.469C344.02 100.75 351.098 100.75 351.098 105.469Z" fill="#1DAEFF"/>
<path fill-rule="evenodd" clip-rule="evenodd" d="M363.838 105.469C363.838 110.188 356.76 110.188 356.76 105.469C356.76 100.75 363.838 100.75 363.838 105.469Z" fill="#1DAEFF"/>
<path fill-rule="evenodd" clip-rule="evenodd" d="M376.578 105.469C376.578 110.188 369.5 110.188 369.5 105.469C369.5 100.75 376.578 100.75 376.578 105.469Z" fill="#1DAEFF"/>
<path fill-rule="evenodd" clip-rule="evenodd" d="M389.318 105.469C389.318 110.188 382.24 110.188 382.24 105.469C382.24 100.75 389.318 100.75 389.318 105.469Z" fill="#1DAEFF"/>
<path fill-rule="evenodd" clip-rule="evenodd" d="M402.058 105.469C402.058 110.188 394.98 110.188 394.98 105.469C394.98 100.75 402.058 100.75 402.058 105.469Z" fill="#1DAEFF"/>
<path fill-rule="evenodd" clip-rule="evenodd" d="M414.798 105.469C414.798 110.188 407.72 110.188 407.72 105.469C407.72 100.75 414.798 100.75 414.798 105.469Z" fill="#1DAEFF"/>
<path fill-rule="evenodd" clip-rule="evenodd" d="M427.538 105.469C427.538 110.188 420.46 110.188 420.46 105.469C420.46 100.75 427.538 100.75 427.538 105.469Z" fill="#1DAEFF"/>
<path fill-rule="evenodd" clip-rule="evenodd" d="M440.288 105.469C440.288 110.188 433.21 110.188 433.21 105.469C433.21 100.75 440.288 100.75 440.288 105.469Z" fill="#1DAEFF"/>
<path fill-rule="evenodd" clip-rule="evenodd" d="M453.028 105.469C453.028 110.188 445.95 110.188 445.95 105.469C445.95 100.75 453.028 100.75 453.028 105.469Z" fill="#1DAEFF"/>
<path fill-rule="evenodd" clip-rule="evenodd" d="M58.0381 118.199C58.0381 122.918 50.96 122.918 50.96 118.199C50.96 113.48 58.0381 113.48 58.0381 118.199Z" fill="#1DAEFF"/>
<path fill-rule="evenodd" clip-rule="evenodd" d="M70.7881 118.199C70.7881 122.918 63.71 122.918 63.71 118.199C63.71 113.48 70.7881 113.48 70.7881 118.199Z" fill="#1DAEFF"/>
<path fill-rule="evenodd" clip-rule="evenodd" d="M83.5283 118.199C83.5283 122.918 76.4502 122.918 76.4502 118.199C76.4502 113.48 83.5283 113.48 83.5283 118.199Z" fill="#1DAEFF"/>
<path fill-rule="evenodd" clip-rule="evenodd" d="M96.2681 118.199C96.2681 122.918 89.1899 122.918 89.1899 118.199C89.1899 113.48 96.2681 113.48 96.2681 118.199Z" fill="#1DAEFF"/>
<path fill-rule="evenodd" clip-rule="evenodd" d="M147.228 118.199C147.228 122.918 140.15 122.918 140.15 118.199C140.15 113.48 147.228 113.48 147.228 118.199Z" fill="#1DAEFF"/>
<path fill-rule="evenodd" clip-rule="evenodd" d="M159.978 118.199C159.978 122.918 152.9 122.918 152.9 118.199C152.9 113.48 159.978 113.48 159.978 118.199Z" fill="#1DAEFF"/>
<path fill-rule="evenodd" clip-rule="evenodd" d="M172.708 118.199C172.708 122.918 165.63 122.918 165.63 118.199C165.63 113.48 172.708 113.48 172.708 118.199Z" fill="#1DAEFF"/>
<path fill-rule="evenodd" clip-rule="evenodd" d="M185.458 118.199C185.458 122.918 178.376 122.918 178.376 118.199C178.376 113.48 185.458 113.48 185.458 118.199Z" fill="#1DAEFF"/>
<path fill-rule="evenodd" clip-rule="evenodd" d="M198.208 118.199C198.208 122.918 191.13 122.918 191.13 118.199C191.13 113.48 198.208 113.48 198.208 118.199Z" fill="#1DAEFF"/>
<path fill-rule="evenodd" clip-rule="evenodd" d="M210.948 118.199C210.948 122.918 203.87 122.918 203.87 118.199C203.87 113.48 210.948 113.48 210.948 118.199Z" fill="#1DAEFF"/>
<path fill-rule="evenodd" clip-rule="evenodd" d="M223.688 118.199C223.688 122.918 216.61 122.918 216.61 118.199C216.61 113.48 223.688 113.48 223.688 118.199Z" fill="#1DAEFF"/>
<path fill-rule="evenodd" clip-rule="evenodd" d="M236.428 118.199C236.428 122.918 229.35 122.918 229.35 118.199C229.35 113.48 236.428 113.48 236.428 118.199Z" fill="#1DAEFF"/>
<path fill-rule="evenodd" clip-rule="evenodd" d="M249.168 118.199C249.168 122.918 242.09 122.918 242.09 118.199C242.09 113.48 249.168 113.48 249.168 118.199Z" fill="#1DAEFF"/>
<path fill-rule="evenodd" clip-rule="evenodd" d="M261.908 118.199C261.908 122.918 254.83 122.918 254.83 118.199C254.83 113.48 261.908 113.48 261.908 118.199Z" fill="#1DAEFF"/>
<path fill-rule="evenodd" clip-rule="evenodd" d="M274.648 118.199C274.648 122.918 267.57 122.918 267.57 118.199C267.57 113.48 274.648 113.48 274.648 118.199Z" fill="#1DAEFF"/>
<path fill-rule="evenodd" clip-rule="evenodd" d="M287.388 118.199C287.388 122.918 280.31 122.918 280.31 118.199C280.31 113.48 287.388 113.48 287.388 118.199Z" fill="#1DAEFF"/>
<path fill-rule="evenodd" clip-rule="evenodd" d="M300.128 118.199C300.128 122.918 293.05 122.918 293.05 118.199C293.05 113.48 300.128 113.48 300.128 118.199Z" fill="#1DAEFF"/>
<path fill-rule="evenodd" clip-rule="evenodd" d="M312.868 118.199C312.868 122.918 305.79 122.918 305.79 118.199C305.79 113.48 312.868 113.48 312.868 118.199Z" fill="#1DAEFF"/>
<path fill-rule="evenodd" clip-rule="evenodd" d="M325.618 118.199C325.618 122.918 318.536 122.918 318.536 118.199C318.536 113.48 325.618 113.48 325.618 118.199Z" fill="#1DAEFF"/>
<path fill-rule="evenodd" clip-rule="evenodd" d="M338.358 118.199C338.358 122.918 331.28 122.918 331.28 118.199C331.28 113.48 338.358 113.48 338.358 118.199Z" fill="#1DAEFF"/>
<path fill-rule="evenodd" clip-rule="evenodd" d="M351.098 118.199C351.098 122.918 344.02 122.918 344.02 118.199C344.02 113.48 351.098 113.48 351.098 118.199Z" fill="#1DAEFF"/>
<path fill-rule="evenodd" clip-rule="evenodd" d="M363.838 118.199C363.838 122.918 356.76 122.918 356.76 118.199C356.76 113.48 363.838 113.48 363.838 118.199Z" fill="#1DAEFF"/>
<path fill-rule="evenodd" clip-rule="evenodd" d="M376.578 118.199C376.578 122.918 369.5 122.918 369.5 118.199C369.5 113.48 376.578 113.48 376.578 118.199Z" fill="#1DAEFF"/>
<path fill-rule="evenodd" clip-rule="evenodd" d="M389.318 118.199C389.318 122.918 382.24 122.918 382.24 118.199C382.24 113.48 389.318 113.48 389.318 118.199Z" fill="#1DAEFF"/>
<path fill-rule="evenodd" clip-rule="evenodd" d="M402.058 118.199C402.058 122.918 394.98 122.918 394.98 118.199C394.98 113.48 402.058 113.48 402.058 118.199Z" fill="#1DAEFF"/>
<path fill-rule="evenodd" clip-rule="evenodd" d="M414.798 118.199C414.798 122.918 407.72 122.918 407.72 118.199C407.72 113.48 414.798 113.48 414.798 118.199Z" fill="#1DAEFF"/>
<path fill-rule="evenodd" clip-rule="evenodd" d="M427.538 118.199C427.538 122.918 420.46 122.918 420.46 118.199C420.46 113.48 427.538 113.48 427.538 118.199Z" fill="#1DAEFF"/>
<path fill-rule="evenodd" clip-rule="evenodd" d="M440.288 118.199C440.288 122.918 433.21 122.918 433.21 118.199C433.21 113.48 440.288 113.48 440.288 118.199Z" fill="#1DAEFF"/>
<path fill-rule="evenodd" clip-rule="evenodd" d="M58.0381 130.949C58.0381 135.668 50.96 135.668 50.96 130.949C50.96 126.23 58.0381 126.23 58.0381 130.949Z" fill="#1DAEFF"/>
<path fill-rule="evenodd" clip-rule="evenodd" d="M70.7881 130.949C70.7881 135.668 63.71 135.668 63.71 130.949C63.71 126.23 70.7881 126.23 70.7881 130.949Z" fill="#1DAEFF"/>
<path fill-rule="evenodd" clip-rule="evenodd" d="M83.5283 130.949C83.5283 135.668 76.4502 135.668 76.4502 130.949C76.4502 126.23 83.5283 126.23 83.5283 130.949Z" fill="#1DAEFF"/>
<path fill-rule="evenodd" clip-rule="evenodd" d="M134.498 130.949C134.498 135.668 127.42 135.668 127.42 130.949C127.42 126.23 134.498 126.23 134.498 130.949Z" fill="#1DAEFF"/>
<path fill-rule="evenodd" clip-rule="evenodd" d="M159.978 130.949C159.978 135.668 152.9 135.668 152.9 130.949C152.9 126.23 159.978 126.23 159.978 130.949Z" fill="#1DAEFF"/>
<path fill-rule="evenodd" clip-rule="evenodd" d="M172.708 130.949C172.708 135.668 165.63 135.668 165.63 130.949C165.63 126.23 172.708 126.23 172.708 130.949Z" fill="#1DAEFF"/>
<path fill-rule="evenodd" clip-rule="evenodd" d="M185.458 130.949C185.458 135.668 178.376 135.668 178.376 130.949C178.376 126.23 185.458 126.23 185.458 130.949Z" fill="#1DAEFF"/>
<path fill-rule="evenodd" clip-rule="evenodd" d="M198.208 130.949C198.208 135.668 191.13 135.668 191.13 130.949C191.13 126.23 198.208 126.23 198.208 130.949Z" fill="#1DAEFF"/>
<path fill-rule="evenodd" clip-rule="evenodd" d="M210.948 130.949C210.948 135.668 203.87 135.668 203.87 130.949C203.87 126.23 210.948 126.23 210.948 130.949Z" fill="#1DAEFF"/>
<path fill-rule="evenodd" clip-rule="evenodd" d="M223.688 130.949C223.688 135.668 216.61 135.668 216.61 130.949C216.61 126.23 223.688 126.23 223.688 130.949Z" fill="#1DAEFF"/>
<path fill-rule="evenodd" clip-rule="evenodd" d="M236.428 130.949C236.428 135.668 229.35 135.668 229.35 130.949C229.35 126.23 236.428 126.23 236.428 130.949Z" fill="#1DAEFF"/>
<path fill-rule="evenodd" clip-rule="evenodd" d="M249.168 130.949C249.168 135.668 242.09 135.668 242.09 130.949C242.09 126.23 249.168 126.23 249.168 130.949Z" fill="#1DAEFF"/>
<path fill-rule="evenodd" clip-rule="evenodd" d="M261.908 130.949C261.908 135.668 254.83 135.668 254.83 130.949C254.83 126.23 261.908 126.23 261.908 130.949Z" fill="#1DAEFF"/>
<path fill-rule="evenodd" clip-rule="evenodd" d="M274.648 130.949C274.648 135.668 267.57 135.668 267.57 130.949C267.57 126.23 274.648 126.23 274.648 130.949Z" fill="#1DAEFF"/>
<path fill-rule="evenodd" clip-rule="evenodd" d="M287.388 130.949C287.388 135.668 280.31 135.668 280.31 130.949C280.31 126.23 287.388 126.23 287.388 130.949Z" fill="#1DAEFF"/>
<path fill-rule="evenodd" clip-rule="evenodd" d="M300.128 130.949C300.128 135.668 293.05 135.668 293.05 130.949C293.05 126.23 300.128 126.23 300.128 130.949Z" fill="#1DAEFF"/>
<path fill-rule="evenodd" clip-rule="evenodd" d="M312.868 130.949C312.868 135.668 305.79 135.668 305.79 130.949C305.79 126.23 312.868 126.23 312.868 130.949Z" fill="#1DAEFF"/>
<path fill-rule="evenodd" clip-rule="evenodd" d="M325.618 130.949C325.618 135.668 318.536 135.668 318.536 130.949C318.536 126.23 325.618 126.23 325.618 130.949Z" fill="#1DAEFF"/>
<path fill-rule="evenodd" clip-rule="evenodd" d="M338.358 130.949C338.358 135.668 331.28 135.668 331.28 130.949C331.28 126.23 338.358 126.23 338.358 130.949Z" fill="#1DAEFF"/>
<path fill-rule="evenodd" clip-rule="evenodd" d="M351.098 130.949C351.098 135.668 344.02 135.668 344.02 130.949C344.02 126.23 351.098 126.23 351.098 130.949Z" fill="#1DAEFF"/>
<path fill-rule="evenodd" clip-rule="evenodd" d="M363.838 130.949C363.838 135.668 356.76 135.668 356.76 130.949C356.76 126.23 363.838 126.23 363.838 130.949Z" fill="#1DAEFF"/>
<path fill-rule="evenodd" clip-rule="evenodd" d="M376.578 130.949C376.578 135.668 369.5 135.668 369.5 130.949C369.5 126.23 376.578 126.23 376.578 130.949Z" fill="#1DAEFF"/>
<path fill-rule="evenodd" clip-rule="evenodd" d="M389.318 130.949C389.318 135.668 382.24 135.668 382.24 130.949C382.24 126.23 389.318 126.23 389.318 130.949Z" fill="#1DAEFF"/>
<path fill-rule="evenodd" clip-rule="evenodd" d="M402.058 130.949C402.058 135.668 394.98 135.668 394.98 130.949C394.98 126.23 402.058 126.23 402.058 130.949Z" fill="#1DAEFF"/>
<path fill-rule="evenodd" clip-rule="evenodd" d="M414.798 130.949C414.798 135.668 407.72 135.668 407.72 130.949C407.72 126.23 414.798 126.23 414.798 130.949Z" fill="#1DAEFF"/>
<path fill-rule="evenodd" clip-rule="evenodd" d="M427.538 130.949C427.538 135.668 420.46 135.668 420.46 130.949C420.46 126.23 427.538 126.23 427.538 130.949Z" fill="#1DAEFF"/>
<path fill-rule="evenodd" clip-rule="evenodd" d="M440.288 130.949C440.288 135.668 433.21 135.668 433.21 130.949C433.21 126.23 440.288 126.23 440.288 130.949Z" fill="#1DAEFF"/>
<path fill-rule="evenodd" clip-rule="evenodd" d="M147.228 143.679C147.228 148.398 140.15 148.398 140.15 143.679C140.15 138.96 147.228 138.96 147.228 143.679Z" fill="#1DAEFF"/>
<path fill-rule="evenodd" clip-rule="evenodd" d="M159.978 143.679C159.978 148.398 152.9 148.398 152.9 143.679C152.9 138.96 159.978 138.96 159.978 143.679Z" fill="#1DAEFF"/>
<path fill-rule="evenodd" clip-rule="evenodd" d="M172.708 143.679C172.708 148.398 165.63 148.398 165.63 143.679C165.63 138.96 172.708 138.96 172.708 143.679Z" fill="#1DAEFF"/>
<path fill-rule="evenodd" clip-rule="evenodd" d="M185.458 143.679C185.458 148.398 178.376 148.398 178.376 143.679C178.376 138.96 185.458 138.96 185.458 143.679Z" fill="#1DAEFF"/>
<path fill-rule="evenodd" clip-rule="evenodd" d="M198.208 143.679C198.208 148.398 191.13 148.398 191.13 143.679C191.13 138.96 198.208 138.96 198.208 143.679Z" fill="#1DAEFF"/>
<path fill-rule="evenodd" clip-rule="evenodd" d="M210.948 143.679C210.948 148.398 203.87 148.398 203.87 143.679C203.87 138.96 210.948 138.96 210.948 143.679Z" fill="#1DAEFF"/>
<path fill-rule="evenodd" clip-rule="evenodd" d="M223.688 143.679C223.688 148.398 216.61 148.398 216.61 143.679C216.61 138.96 223.688 138.96 223.688 143.679Z" fill="#1DAEFF"/>
<path fill-rule="evenodd" clip-rule="evenodd" d="M236.428 143.679C236.428 148.398 229.35 148.398 229.35 143.679C229.35 138.96 236.428 138.96 236.428 143.679Z" fill="#1DAEFF"/>
<path fill-rule="evenodd" clip-rule="evenodd" d="M249.168 143.679C249.168 148.398 242.09 148.398 242.09 143.679C242.09 138.96 249.168 138.96 249.168 143.679Z" fill="#1DAEFF"/>
<path fill-rule="evenodd" clip-rule="evenodd" d="M261.908 143.679C261.908 148.398 254.83 148.398 254.83 143.679C254.83 138.96 261.908 138.96 261.908 143.679Z" fill="#1DAEFF"/>
<path fill-rule="evenodd" clip-rule="evenodd" d="M274.648 143.679C274.648 148.398 267.57 148.398 267.57 143.679C267.57 138.96 274.648 138.96 274.648 143.679Z" fill="#1DAEFF"/>
<path fill-rule="evenodd" clip-rule="evenodd" d="M287.388 143.679C287.388 148.398 280.31 148.398 280.31 143.679C280.31 138.96 287.388 138.96 287.388 143.679Z" fill="#1DAEFF"/>
<path fill-rule="evenodd" clip-rule="evenodd" d="M300.128 143.679C300.128 148.398 293.05 148.398 293.05 143.679C293.05 138.96 300.128 138.96 300.128 143.679Z" fill="#1DAEFF"/>
<path fill-rule="evenodd" clip-rule="evenodd" d="M312.868 143.679C312.868 148.398 305.79 148.398 305.79 143.679C305.79 138.96 312.868 138.96 312.868 143.679Z" fill="#1DAEFF"/>
<path fill-rule="evenodd" clip-rule="evenodd" d="M325.618 143.679C325.618 148.398 318.536 148.398 318.536 143.679C318.536 138.96 325.618 138.96 325.618 143.679Z" fill="#1DAEFF"/>
<path fill-rule="evenodd" clip-rule="evenodd" d="M338.358 143.679C338.358 148.398 331.28 148.398 331.28 143.679C331.28 138.96 338.358 138.96 338.358 143.679Z" fill="#1DAEFF"/>
<path fill-rule="evenodd" clip-rule="evenodd" d="M351.098 143.679C351.098 148.398 344.02 148.398 344.02 143.679C344.02 138.96 351.098 138.96 351.098 143.679Z" fill="#1DAEFF"/>
<path fill-rule="evenodd" clip-rule="evenodd" d="M363.838 143.679C363.838 148.398 356.76 148.398 356.76 143.679C356.76 138.96 363.838 138.96 363.838 143.679Z" fill="#1DAEFF"/>
<path fill-rule="evenodd" clip-rule="evenodd" d="M376.578 143.679C376.578 148.398 369.5 148.398 369.5 143.679C369.5 138.96 376.578 138.96 376.578 143.679Z" fill="#1DAEFF"/>
<path fill-rule="evenodd" clip-rule="evenodd" d="M389.318 143.679C389.318 148.398 382.24 148.398 382.24 143.679C382.24 138.96 389.318 138.96 389.318 143.679Z" fill="#1DAEFF"/>
<path fill-rule="evenodd" clip-rule="evenodd" d="M402.058 143.679C402.058 148.398 394.98 148.398 394.98 143.679C394.98 138.96 402.058 138.96 402.058 143.679Z" fill="#1DAEFF"/>
<path fill-rule="evenodd" clip-rule="evenodd" d="M414.798 143.679C414.798 148.398 407.72 148.398 407.72 143.679C407.72 138.96 414.798 138.96 414.798 143.679Z" fill="#1DAEFF"/>
<path fill-rule="evenodd" clip-rule="evenodd" d="M427.538 143.679C427.538 148.398 420.46 148.398 420.46 143.679C420.46 138.96 427.538 138.96 427.538 143.679Z" fill="#1DAEFF"/>
<path fill-rule="evenodd" clip-rule="evenodd" d="M440.288 143.679C440.288 148.398 433.21 148.398 433.21 143.679C433.21 138.96 440.288 138.96 440.288 143.679Z" fill="#1DAEFF"/>
<path fill-rule="evenodd" clip-rule="evenodd" d="M58.0381 156.429C58.0381 161.148 50.96 161.148 50.96 156.429C50.96 151.71 58.0381 151.71 58.0381 156.429Z" fill="#1DAEFF"/>
<path fill-rule="evenodd" clip-rule="evenodd" d="M83.5283 156.429C83.5283 161.148 76.4502 161.148 76.4502 156.429C76.4502 151.71 83.5283 151.71 83.5283 156.429Z" fill="#1DAEFF"/>
<path fill-rule="evenodd" clip-rule="evenodd" d="M96.2681 156.429C96.2681 161.148 89.1899 161.148 89.1899 156.429C89.1899 151.71 96.2681 151.71 96.2681 156.429Z" fill="#1DAEFF"/>
<path fill-rule="evenodd" clip-rule="evenodd" d="M109.008 156.429C109.008 161.148 101.93 161.148 101.93 156.429C101.93 151.71 109.008 151.71 109.008 156.429Z" fill="#1DAEFF"/>
<path fill-rule="evenodd" clip-rule="evenodd" d="M121.748 156.429C121.748 161.148 114.67 161.148 114.67 156.429C114.67 151.71 121.748 151.71 121.748 156.429Z" fill="#1DAEFF"/>
<path fill-rule="evenodd" clip-rule="evenodd" d="M147.228 156.429C147.228 161.148 140.15 161.148 140.15 156.429C140.15 151.71 147.228 151.71 147.228 156.429Z" fill="#1DAEFF"/>
<path fill-rule="evenodd" clip-rule="evenodd" d="M159.978 156.429C159.978 161.148 152.9 161.148 152.9 156.429C152.9 151.71 159.978 151.71 159.978 156.429Z" fill="#1DAEFF"/>
<path fill-rule="evenodd" clip-rule="evenodd" d="M172.708 156.429C172.708 161.148 165.63 161.148 165.63 156.429C165.63 151.71 172.708 151.71 172.708 156.429Z" fill="#1DAEFF"/>
<path fill-rule="evenodd" clip-rule="evenodd" d="M185.458 156.429C185.458 161.148 178.376 161.148 178.376 156.429C178.376 151.71 185.458 151.71 185.458 156.429Z" fill="#1DAEFF"/>
<path fill-rule="evenodd" clip-rule="evenodd" d="M198.208 156.429C198.208 161.148 191.13 161.148 191.13 156.429C191.13 151.71 198.208 151.71 198.208 156.429Z" fill="#1DAEFF"/>
<path fill-rule="evenodd" clip-rule="evenodd" d="M210.948 156.429C210.948 161.148 203.87 161.148 203.87 156.429C203.87 151.71 210.948 151.71 210.948 156.429Z" fill="#1DAEFF"/>
<path fill-rule="evenodd" clip-rule="evenodd" d="M223.688 156.429C223.688 161.148 216.61 161.148 216.61 156.429C216.61 151.71 223.688 151.71 223.688 156.429Z" fill="#1DAEFF"/>
<path fill-rule="evenodd" clip-rule="evenodd" d="M236.428 156.429C236.428 161.148 229.35 161.148 229.35 156.429C229.35 151.71 236.428 151.71 236.428 156.429Z" fill="#1DAEFF"/>
<path fill-rule="evenodd" clip-rule="evenodd" d="M249.168 156.429C249.168 161.148 242.09 161.148 242.09 156.429C242.09 151.71 249.168 151.71 249.168 156.429Z" fill="#1DAEFF"/>
<path fill-rule="evenodd" clip-rule="evenodd" d="M261.908 156.429C261.908 161.148 254.83 161.148 254.83 156.429C254.83 151.71 261.908 151.71 261.908 156.429Z" fill="#1DAEFF"/>
<path fill-rule="evenodd" clip-rule="evenodd" d="M274.648 156.429C274.648 161.148 267.57 161.148 267.57 156.429C267.57 151.71 274.648 151.71 274.648 156.429Z" fill="#1DAEFF"/>
<path fill-rule="evenodd" clip-rule="evenodd" d="M287.388 156.429C287.388 161.148 280.31 161.148 280.31 156.429C280.31 151.71 287.388 151.71 287.388 156.429Z" fill="#1DAEFF"/>
<path fill-rule="evenodd" clip-rule="evenodd" d="M300.128 156.429C300.128 161.148 293.05 161.148 293.05 156.429C293.05 151.71 300.128 151.71 300.128 156.429Z" fill="#1DAEFF"/>
<path fill-rule="evenodd" clip-rule="evenodd" d="M312.868 156.429C312.868 161.148 305.79 161.148 305.79 156.429C305.79 151.71 312.868 151.71 312.868 156.429Z" fill="#1DAEFF"/>
<path fill-rule="evenodd" clip-rule="evenodd" d="M325.618 156.429C325.618 161.148 318.536 161.148 318.536 156.429C318.536 151.71 325.618 151.71 325.618 156.429Z" fill="#1DAEFF"/>
<path fill-rule="evenodd" clip-rule="evenodd" d="M338.358 156.429C338.358 161.148 331.28 161.148 331.28 156.429C331.28 151.71 338.358 151.71 338.358 156.429Z" fill="#1DAEFF"/>
<path fill-rule="evenodd" clip-rule="evenodd" d="M351.098 156.429C351.098 161.148 344.02 161.148 344.02 156.429C344.02 151.71 351.098 151.71 351.098 156.429Z" fill="#1DAEFF"/>
<path fill-rule="evenodd" clip-rule="evenodd" d="M363.838 156.429C363.838 161.148 356.76 161.148 356.76 156.429C356.76 151.71 363.838 151.71 363.838 156.429Z" fill="#1DAEFF"/>
<path fill-rule="evenodd" clip-rule="evenodd" d="M376.578 156.429C376.578 161.148 369.5 161.148 369.5 156.429C369.5 151.71 376.578 151.71 376.578 156.429Z" fill="#1DAEFF"/>
<path fill-rule="evenodd" clip-rule="evenodd" d="M389.318 156.429C389.318 161.148 382.24 161.148 382.24 156.429C382.24 151.71 389.318 151.71 389.318 156.429Z" fill="#1DAEFF"/>
<path fill-rule="evenodd" clip-rule="evenodd" d="M402.058 156.429C402.058 161.148 394.98 161.148 394.98 156.429C394.98 151.71 402.058 151.71 402.058 156.429Z" fill="#1DAEFF"/>
<path fill-rule="evenodd" clip-rule="evenodd" d="M414.798 156.429C414.798 161.148 407.72 161.148 407.72 156.429C407.72 151.71 414.798 151.71 414.798 156.429Z" fill="#1DAEFF"/>
<path fill-rule="evenodd" clip-rule="evenodd" d="M427.538 156.429C427.538 161.148 420.46 161.148 420.46 156.429C420.46 151.71 427.538 151.71 427.538 156.429Z" fill="#1DAEFF"/>
<path fill-rule="evenodd" clip-rule="evenodd" d="M440.288 156.429C440.288 161.148 433.21 161.148 433.21 156.429C433.21 151.71 440.288 151.71 440.288 156.429Z" fill="#1DAEFF"/>
<path fill-rule="evenodd" clip-rule="evenodd" d="M45.2983 169.179C45.2983 173.898 38.2202 173.898 38.2202 169.179C38.2202 164.46 45.2983 164.46 45.2983 169.179Z" fill="#1DAEFF"/>
<path fill-rule="evenodd" clip-rule="evenodd" d="M58.0381 169.179C58.0381 173.898 50.96 173.898 50.96 169.179C50.96 164.46 58.0381 164.46 58.0381 169.179Z" fill="#1DAEFF"/>
<path fill-rule="evenodd" clip-rule="evenodd" d="M70.7881 169.179C70.7881 173.898 63.71 173.898 63.71 169.179C63.71 164.46 70.7881 164.46 70.7881 169.179Z" fill="#1DAEFF"/>
<path fill-rule="evenodd" clip-rule="evenodd" d="M83.5283 169.179C83.5283 173.898 76.4502 173.898 76.4502 169.179C76.4502 164.46 83.5283 164.46 83.5283 169.179Z" fill="#1DAEFF"/>
<path fill-rule="evenodd" clip-rule="evenodd" d="M96.2681 169.179C96.2681 173.898 89.1899 173.898 89.1899 169.179C89.1899 164.46 96.2681 164.46 96.2681 169.179Z" fill="#1DAEFF"/>
<path fill-rule="evenodd" clip-rule="evenodd" d="M109.008 169.179C109.008 173.898 101.93 173.898 101.93 169.179C101.93 164.46 109.008 164.46 109.008 169.179Z" fill="#1DAEFF"/>
<path fill-rule="evenodd" clip-rule="evenodd" d="M147.228 169.179C147.228 173.898 140.15 173.898 140.15 169.179C140.15 164.46 147.228 164.46 147.228 169.179Z" fill="#1DAEFF"/>
<path fill-rule="evenodd" clip-rule="evenodd" d="M159.978 169.179C159.978 173.898 152.9 173.898 152.9 169.179C152.9 164.46 159.978 164.46 159.978 169.179Z" fill="#1DAEFF"/>
<path fill-rule="evenodd" clip-rule="evenodd" d="M172.708 169.179C172.708 173.898 165.63 173.898 165.63 169.179C165.63 164.46 172.708 164.46 172.708 169.179Z" fill="#1DAEFF"/>
<path fill-rule="evenodd" clip-rule="evenodd" d="M185.458 169.179C185.458 173.898 178.376 173.898 178.376 169.179C178.376 164.46 185.458 164.46 185.458 169.179Z" fill="#1DAEFF"/>
<path fill-rule="evenodd" clip-rule="evenodd" d="M198.208 169.179C198.208 173.898 191.13 173.898 191.13 169.179C191.13 164.46 198.208 164.46 198.208 169.179Z" fill="#1DAEFF"/>
<path fill-rule="evenodd" clip-rule="evenodd" d="M210.948 169.179C210.948 173.898 203.87 173.898 203.87 169.179C203.87 164.46 210.948 164.46 210.948 169.179Z" fill="#1DAEFF"/>
<path fill-rule="evenodd" clip-rule="evenodd" d="M223.688 169.179C223.688 173.898 216.61 173.898 216.61 169.179C216.61 164.46 223.688 164.46 223.688 169.179Z" fill="#1DAEFF"/>
<path fill-rule="evenodd" clip-rule="evenodd" d="M236.428 169.179C236.428 173.898 229.35 173.898 229.35 169.179C229.35 164.46 236.428 164.46 236.428 169.179Z" fill="#1DAEFF"/>
<path fill-rule="evenodd" clip-rule="evenodd" d="M249.168 169.179C249.168 173.898 242.09 173.898 242.09 169.179C242.09 164.46 249.168 164.46 249.168 169.179Z" fill="#1DAEFF"/>
<path fill-rule="evenodd" clip-rule="evenodd" d="M261.908 169.179C261.908 173.898 254.83 173.898 254.83 169.179C254.83 164.46 261.908 164.46 261.908 169.179Z" fill="#1DAEFF"/>
<path fill-rule="evenodd" clip-rule="evenodd" d="M274.648 169.179C274.648 173.898 267.57 173.898 267.57 169.179C267.57 164.46 274.648 164.46 274.648 169.179Z" fill="#1DAEFF"/>
<path fill-rule="evenodd" clip-rule="evenodd" d="M287.388 169.179C287.388 173.898 280.31 173.898 280.31 169.179C280.31 164.46 287.388 164.46 287.388 169.179Z" fill="#1DAEFF"/>
<path fill-rule="evenodd" clip-rule="evenodd" d="M300.128 169.179C300.128 173.898 293.05 173.898 293.05 169.179C293.05 164.46 300.128 164.46 300.128 169.179Z" fill="#1DAEFF"/>
<path fill-rule="evenodd" clip-rule="evenodd" d="M312.868 169.179C312.868 173.898 305.79 173.898 305.79 169.179C305.79 164.46 312.868 164.46 312.868 169.179Z" fill="#1DAEFF"/>
<path fill-rule="evenodd" clip-rule="evenodd" d="M325.618 169.179C325.618 173.898 318.536 173.898 318.536 169.179C318.536 164.46 325.618 164.46 325.618 169.179Z" fill="#1DAEFF"/>
<path fill-rule="evenodd" clip-rule="evenodd" d="M338.358 169.179C338.358 173.898 331.28 173.898 331.28 169.179C331.28 164.46 338.358 164.46 338.358 169.179Z" fill="#1DAEFF"/>
<path fill-rule="evenodd" clip-rule="evenodd" d="M351.098 169.179C351.098 173.898 344.02 173.898 344.02 169.179C344.02 164.46 351.098 164.46 351.098 169.179Z" fill="#1DAEFF"/>
<path fill-rule="evenodd" clip-rule="evenodd" d="M363.838 169.179C363.838 173.898 356.76 173.898 356.76 169.179C356.76 164.46 363.838 164.46 363.838 169.179Z" fill="#1DAEFF"/>
<path fill-rule="evenodd" clip-rule="evenodd" d="M376.578 169.179C376.578 173.898 369.5 173.898 369.5 169.179C369.5 164.46 376.578 164.46 376.578 169.179Z" fill="#1DAEFF"/>
<path fill-rule="evenodd" clip-rule="evenodd" d="M389.318 169.179C389.318 173.898 382.24 173.898 382.24 169.179C382.24 164.46 389.318 164.46 389.318 169.179Z" fill="#1DAEFF"/>
<path fill-rule="evenodd" clip-rule="evenodd" d="M402.058 169.179C402.058 173.898 394.98 173.898 394.98 169.179C394.98 164.46 402.058 164.46 402.058 169.179Z" fill="#1DAEFF"/>
<path fill-rule="evenodd" clip-rule="evenodd" d="M414.798 169.179C414.798 173.898 407.72 173.898 407.72 169.179C407.72 164.46 414.798 164.46 414.798 169.179Z" fill="#1DAEFF"/>
<path fill-rule="evenodd" clip-rule="evenodd" d="M427.538 169.179C427.538 173.898 420.46 173.898 420.46 169.179C420.46 164.46 427.538 164.46 427.538 169.179Z" fill="#1DAEFF"/>
<path fill-rule="evenodd" clip-rule="evenodd" d="M440.288 169.179C440.288 173.898 433.21 173.898 433.21 169.179C433.21 164.46 440.288 164.46 440.288 169.179Z" fill="#1DAEFF"/>
<path fill-rule="evenodd" clip-rule="evenodd" d="M19.8281 181.899C19.8281 186.618 12.75 186.618 12.75 181.899C12.75 177.18 19.8281 177.18 19.8281 181.899Z" fill="#1DAEFF"/>
<path fill-rule="evenodd" clip-rule="evenodd" d="M32.5581 181.899C32.5581 186.618 25.48 186.618 25.48 181.899C25.48 177.18 32.5581 177.18 32.5581 181.899Z" fill="#1DAEFF"/>
<path fill-rule="evenodd" clip-rule="evenodd" d="M45.2983 181.899C45.2983 186.618 38.2202 186.618 38.2202 181.899C38.2202 177.18 45.2983 177.18 45.2983 181.899Z" fill="#1DAEFF"/>
<path fill-rule="evenodd" clip-rule="evenodd" d="M58.0381 181.899C58.0381 186.618 50.96 186.618 50.96 181.899C50.96 177.18 58.0381 177.18 58.0381 181.899Z" fill="#1DAEFF"/>
<path fill-rule="evenodd" clip-rule="evenodd" d="M70.7881 181.899C70.7881 186.618 63.71 186.618 63.71 181.899C63.71 177.18 70.7881 177.18 70.7881 181.899Z" fill="#1DAEFF"/>
<path fill-rule="evenodd" clip-rule="evenodd" d="M83.5283 181.899C83.5283 186.618 76.4502 186.618 76.4502 181.899C76.4502 177.18 83.5283 177.18 83.5283 181.899Z" fill="#1DAEFF"/>
<path fill-rule="evenodd" clip-rule="evenodd" d="M96.2681 181.899C96.2681 186.618 89.1899 186.618 89.1899 181.899C89.1899 177.18 96.2681 177.18 96.2681 181.899Z" fill="#1DAEFF"/>
<path fill-rule="evenodd" clip-rule="evenodd" d="M121.748 181.899C121.748 186.618 114.67 186.618 114.67 181.899C114.67 177.18 121.748 177.18 121.748 181.899Z" fill="#1DAEFF"/>
<path fill-rule="evenodd" clip-rule="evenodd" d="M159.978 181.899C159.978 186.618 152.9 186.618 152.9 181.899C152.9 177.18 159.978 177.18 159.978 181.899Z" fill="#1DAEFF"/>
<path fill-rule="evenodd" clip-rule="evenodd" d="M172.708 181.899C172.708 186.618 165.63 186.618 165.63 181.899C165.63 177.18 172.708 177.18 172.708 181.899Z" fill="#1DAEFF"/>
<path fill-rule="evenodd" clip-rule="evenodd" d="M185.458 181.899C185.458 186.618 178.376 186.618 178.376 181.899C178.376 177.18 185.458 177.18 185.458 181.899Z" fill="#1DAEFF"/>
<path fill-rule="evenodd" clip-rule="evenodd" d="M198.208 181.899C198.208 186.618 191.13 186.618 191.13 181.899C191.13 177.18 198.208 177.18 198.208 181.899Z" fill="#1DAEFF"/>
<path fill-rule="evenodd" clip-rule="evenodd" d="M210.948 181.899C210.948 186.618 203.87 186.618 203.87 181.899C203.87 177.18 210.948 177.18 210.948 181.899Z" fill="#1DAEFF"/>
<path fill-rule="evenodd" clip-rule="evenodd" d="M223.688 181.899C223.688 186.618 216.61 186.618 216.61 181.899C216.61 177.18 223.688 177.18 223.688 181.899Z" fill="#1DAEFF"/>
<path fill-rule="evenodd" clip-rule="evenodd" d="M236.428 181.899C236.428 186.618 229.35 186.618 229.35 181.899C229.35 177.18 236.428 177.18 236.428 181.899Z" fill="#1DAEFF"/>
<path fill-rule="evenodd" clip-rule="evenodd" d="M249.168 181.899C249.168 186.618 242.09 186.618 242.09 181.899C242.09 177.18 249.168 177.18 249.168 181.899Z" fill="#1DAEFF"/>
<path fill-rule="evenodd" clip-rule="evenodd" d="M261.908 181.899C261.908 186.618 254.83 186.618 254.83 181.899C254.83 177.18 261.908 177.18 261.908 181.899Z" fill="#1DAEFF"/>
<path fill-rule="evenodd" clip-rule="evenodd" d="M274.648 181.899C274.648 186.618 267.57 186.618 267.57 181.899C267.57 177.18 274.648 177.18 274.648 181.899Z" fill="#1DAEFF"/>
<path fill-rule="evenodd" clip-rule="evenodd" d="M287.388 181.899C287.388 186.618 280.31 186.618 280.31 181.899C280.31 177.18 287.388 177.18 287.388 181.899Z" fill="#1DAEFF"/>
<path fill-rule="evenodd" clip-rule="evenodd" d="M300.128 181.899C300.128 186.618 293.05 186.618 293.05 181.899C293.05 177.18 300.128 177.18 300.128 181.899Z" fill="#1DAEFF"/>
<path fill-rule="evenodd" clip-rule="evenodd" d="M312.868 181.899C312.868 186.618 305.79 186.618 305.79 181.899C305.79 177.18 312.868 177.18 312.868 181.899Z" fill="#1DAEFF"/>
<path fill-rule="evenodd" clip-rule="evenodd" d="M325.618 181.899C325.618 186.618 318.536 186.618 318.536 181.899C318.536 177.18 325.618 177.18 325.618 181.899Z" fill="#1DAEFF"/>
<path fill-rule="evenodd" clip-rule="evenodd" d="M338.358 181.899C338.358 186.618 331.28 186.618 331.28 181.899C331.28 177.18 338.358 177.18 338.358 181.899Z" fill="#1DAEFF"/>
<path fill-rule="evenodd" clip-rule="evenodd" d="M351.098 181.899C351.098 186.618 344.02 186.618 344.02 181.899C344.02 177.18 351.098 177.18 351.098 181.899Z" fill="#1DAEFF"/>
<path fill-rule="evenodd" clip-rule="evenodd" d="M363.838 181.899C363.838 186.618 356.76 186.618 356.76 181.899C356.76 177.18 363.838 177.18 363.838 181.899Z" fill="#1DAEFF"/>
<path fill-rule="evenodd" clip-rule="evenodd" d="M376.578 181.899C376.578 186.618 369.5 186.618 369.5 181.899C369.5 177.18 376.578 177.18 376.578 181.899Z" fill="#1DAEFF"/>
<path fill-rule="evenodd" clip-rule="evenodd" d="M389.318 181.899C389.318 186.618 382.24 186.618 382.24 181.899C382.24 177.18 389.318 177.18 389.318 181.899Z" fill="#1DAEFF"/>
<path fill-rule="evenodd" clip-rule="evenodd" d="M402.058 181.899C402.058 186.618 394.98 186.618 394.98 181.899C394.98 177.18 402.058 177.18 402.058 181.899Z" fill="#1DAEFF"/>
<path fill-rule="evenodd" clip-rule="evenodd" d="M414.798 181.899C414.798 186.618 407.72 186.618 407.72 181.899C407.72 177.18 414.798 177.18 414.798 181.899Z" fill="#1DAEFF"/>
<path fill-rule="evenodd" clip-rule="evenodd" d="M427.538 181.899C427.538 186.618 420.46 186.618 420.46 181.899C420.46 177.18 427.538 177.18 427.538 181.899Z" fill="#1DAEFF"/>
<path fill-rule="evenodd" clip-rule="evenodd" d="M440.288 181.899C440.288 186.618 433.21 186.618 433.21 181.899C433.21 177.18 440.288 177.18 440.288 181.899Z" fill="#1DAEFF"/>
<path fill-rule="evenodd" clip-rule="evenodd" d="M19.8281 194.639C19.8281 199.358 12.75 199.358 12.75 194.639C12.75 189.92 19.8281 189.92 19.8281 194.639Z" fill="#1DAEFF"/>
<path fill-rule="evenodd" clip-rule="evenodd" d="M32.5581 194.639C32.5581 199.358 25.48 199.358 25.48 194.639C25.48 189.92 32.5581 189.92 32.5581 194.639Z" fill="#1DAEFF"/>
<path fill-rule="evenodd" clip-rule="evenodd" d="M45.2983 194.639C45.2983 199.358 38.2202 199.358 38.2202 194.639C38.2202 189.92 45.2983 189.92 45.2983 194.639Z" fill="#1DAEFF"/>
<path fill-rule="evenodd" clip-rule="evenodd" d="M58.0381 194.639C58.0381 199.358 50.96 199.358 50.96 194.639C50.96 189.92 58.0381 189.92 58.0381 194.639Z" fill="#1DAEFF"/>
<path fill-rule="evenodd" clip-rule="evenodd" d="M70.7881 194.639C70.7881 199.358 63.71 199.358 63.71 194.639C63.71 189.92 70.7881 189.92 70.7881 194.639Z" fill="#1DAEFF"/>
<path fill-rule="evenodd" clip-rule="evenodd" d="M83.5283 194.639C83.5283 199.358 76.4502 199.358 76.4502 194.639C76.4502 189.92 83.5283 189.92 83.5283 194.639Z" fill="#1DAEFF"/>
<path fill-rule="evenodd" clip-rule="evenodd" d="M159.978 194.639C159.978 199.358 152.9 199.358 152.9 194.639C152.9 189.92 159.978 189.92 159.978 194.639Z" fill="#1DAEFF"/>
<path fill-rule="evenodd" clip-rule="evenodd" d="M172.708 194.639C172.708 199.358 165.63 199.358 165.63 194.639C165.63 189.92 172.708 189.92 172.708 194.639Z" fill="#1DAEFF"/>
<path fill-rule="evenodd" clip-rule="evenodd" d="M185.458 194.639C185.458 199.358 178.376 199.358 178.376 194.639C178.376 189.92 185.458 189.92 185.458 194.639Z" fill="#1DAEFF"/>
<path fill-rule="evenodd" clip-rule="evenodd" d="M198.208 194.639C198.208 199.358 191.13 199.358 191.13 194.639C191.13 189.92 198.208 189.92 198.208 194.639Z" fill="#1DAEFF"/>
<path fill-rule="evenodd" clip-rule="evenodd" d="M223.688 194.639C223.688 199.358 216.61 199.358 216.61 194.639C216.61 189.92 223.688 189.92 223.688 194.639Z" fill="#1DAEFF"/>
<path fill-rule="evenodd" clip-rule="evenodd" d="M236.428 194.639C236.428 199.358 229.35 199.358 229.35 194.639C229.35 189.92 236.428 189.92 236.428 194.639Z" fill="#1DAEFF"/>
<path fill-rule="evenodd" clip-rule="evenodd" d="M249.168 194.639C249.168 199.358 242.09 199.358 242.09 194.639C242.09 189.92 249.168 189.92 249.168 194.639Z" fill="#1DAEFF"/>
<path fill-rule="evenodd" clip-rule="evenodd" d="M261.908 194.639C261.908 199.358 254.83 199.358 254.83 194.639C254.83 189.92 261.908 189.92 261.908 194.639Z" fill="#1DAEFF"/>
<path fill-rule="evenodd" clip-rule="evenodd" d="M274.648 194.639C274.648 199.358 267.57 199.358 267.57 194.639C267.57 189.92 274.648 189.92 274.648 194.639Z" fill="#1DAEFF"/>
<path fill-rule="evenodd" clip-rule="evenodd" d="M287.388 194.639C287.388 199.358 280.31 199.358 280.31 194.639C280.31 189.92 287.388 189.92 287.388 194.639Z" fill="#1DAEFF"/>
<path fill-rule="evenodd" clip-rule="evenodd" d="M300.128 194.639C300.128 199.358 293.05 199.358 293.05 194.639C293.05 189.92 300.128 189.92 300.128 194.639Z" fill="#1DAEFF"/>
<path fill-rule="evenodd" clip-rule="evenodd" d="M312.868 194.639C312.868 199.358 305.79 199.358 305.79 194.639C305.79 189.92 312.868 189.92 312.868 194.639Z" fill="#1DAEFF"/>
<path fill-rule="evenodd" clip-rule="evenodd" d="M325.618 194.639C325.618 199.358 318.536 199.358 318.536 194.639C318.536 189.92 325.618 189.92 325.618 194.639Z" fill="#1DAEFF"/>
<path fill-rule="evenodd" clip-rule="evenodd" d="M338.358 194.639C338.358 199.358 331.28 199.358 331.28 194.639C331.28 189.92 338.358 189.92 338.358 194.639Z" fill="#1DAEFF"/>
<path fill-rule="evenodd" clip-rule="evenodd" d="M351.098 194.639C351.098 199.358 344.02 199.358 344.02 194.639C344.02 189.92 351.098 189.92 351.098 194.639Z" fill="#1DAEFF"/>
<path fill-rule="evenodd" clip-rule="evenodd" d="M363.838 194.639C363.838 199.358 356.76 199.358 356.76 194.639C356.76 189.92 363.838 189.92 363.838 194.639Z" fill="#1DAEFF"/>
<path fill-rule="evenodd" clip-rule="evenodd" d="M376.578 194.639C376.578 199.358 369.5 199.358 369.5 194.639C369.5 189.92 376.578 189.92 376.578 194.639Z" fill="#1DAEFF"/>
<path fill-rule="evenodd" clip-rule="evenodd" d="M389.318 194.639C389.318 199.358 382.24 199.358 382.24 194.639C382.24 189.92 389.318 189.92 389.318 194.639Z" fill="#1DAEFF"/>
<path fill-rule="evenodd" clip-rule="evenodd" d="M402.058 194.639C402.058 199.358 394.98 199.358 394.98 194.639C394.98 189.92 402.058 189.92 402.058 194.639Z" fill="#1DAEFF"/>
<path fill-rule="evenodd" clip-rule="evenodd" d="M414.798 194.639C414.798 199.358 407.72 199.358 407.72 194.639C407.72 189.92 414.798 189.92 414.798 194.639Z" fill="#1DAEFF"/>
<path fill-rule="evenodd" clip-rule="evenodd" d="M427.538 194.639C427.538 199.358 420.46 199.358 420.46 194.639C420.46 189.92 427.538 189.92 427.538 194.639Z" fill="#1DAEFF"/>
<path fill-rule="evenodd" clip-rule="evenodd" d="M440.288 194.639C440.288 199.358 433.21 199.358 433.21 194.639C433.21 189.92 440.288 189.92 440.288 194.639Z" fill="#1DAEFF"/>
<path fill-rule="evenodd" clip-rule="evenodd" d="M453.028 194.639C453.028 199.358 445.95 199.358 445.95 194.639C445.95 189.92 453.028 189.92 453.028 194.639Z" fill="#1DAEFF"/>
<path fill-rule="evenodd" clip-rule="evenodd" d="M7.0781 207.379C7.0781 212.098 0 212.098 0 207.379C0 202.66 7.0781 202.66 7.0781 207.379Z" fill="#1DAEFF"/>
<path fill-rule="evenodd" clip-rule="evenodd" d="M19.8281 207.379C19.8281 212.098 12.75 212.098 12.75 207.379C12.75 202.66 19.8281 202.66 19.8281 207.379Z" fill="#1DAEFF"/>
<path fill-rule="evenodd" clip-rule="evenodd" d="M32.5581 207.379C32.5581 212.098 25.48 212.098 25.48 207.379C25.48 202.66 32.5581 202.66 32.5581 207.379Z" fill="#1DAEFF"/>
<path fill-rule="evenodd" clip-rule="evenodd" d="M45.2983 207.379C45.2983 212.098 38.2202 212.098 38.2202 207.379C38.2202 202.66 45.2983 202.66 45.2983 207.379Z" fill="#1DAEFF"/>
<path fill-rule="evenodd" clip-rule="evenodd" d="M58.0381 207.379C58.0381 212.098 50.96 212.098 50.96 207.379C50.96 202.66 58.0381 202.66 58.0381 207.379Z" fill="#1DAEFF"/>
<path fill-rule="evenodd" clip-rule="evenodd" d="M70.7881 207.379C70.7881 212.098 63.71 212.098 63.71 207.379C63.71 202.66 70.7881 202.66 70.7881 207.379Z" fill="#1DAEFF"/>
<path fill-rule="evenodd" clip-rule="evenodd" d="M83.5283 207.379C83.5283 212.098 76.4502 212.098 76.4502 207.379C76.4502 202.66 83.5283 202.66 83.5283 207.379Z" fill="#1DAEFF"/>
<path fill-rule="evenodd" clip-rule="evenodd" d="M185.458 207.379C185.458 212.098 178.376 212.098 178.376 207.379C178.376 202.66 185.458 202.66 185.458 207.379Z" fill="#1DAEFF"/>
<path fill-rule="evenodd" clip-rule="evenodd" d="M223.688 207.379C223.688 212.098 216.61 212.098 216.61 207.379C216.61 202.66 223.688 202.66 223.688 207.379Z" fill="#1DAEFF"/>
<path fill-rule="evenodd" clip-rule="evenodd" d="M236.428 207.379C236.428 212.098 229.35 212.098 229.35 207.379C229.35 202.66 236.428 202.66 236.428 207.379Z" fill="#1DAEFF"/>
<path fill-rule="evenodd" clip-rule="evenodd" d="M249.168 207.379C249.168 212.098 242.09 212.098 242.09 207.379C242.09 202.66 249.168 202.66 249.168 207.379Z" fill="#1DAEFF"/>
<path fill-rule="evenodd" clip-rule="evenodd" d="M261.908 207.379C261.908 212.098 254.83 212.098 254.83 207.379C254.83 202.66 261.908 202.66 261.908 207.379Z" fill="#1DAEFF"/>
<path fill-rule="evenodd" clip-rule="evenodd" d="M274.648 207.379C274.648 212.098 267.57 212.098 267.57 207.379C267.57 202.66 274.648 202.66 274.648 207.379Z" fill="#1DAEFF"/>
<path fill-rule="evenodd" clip-rule="evenodd" d="M287.388 207.379C287.388 212.098 280.31 212.098 280.31 207.379C280.31 202.66 287.388 202.66 287.388 207.379Z" fill="#1DAEFF"/>
<path fill-rule="evenodd" clip-rule="evenodd" d="M300.128 207.379C300.128 212.098 293.05 212.098 293.05 207.379C293.05 202.66 300.128 202.66 300.128 207.379Z" fill="#1DAEFF"/>
<path fill-rule="evenodd" clip-rule="evenodd" d="M312.868 207.379C312.868 212.098 305.79 212.098 305.79 207.379C305.79 202.66 312.868 202.66 312.868 207.379Z" fill="#1DAEFF"/>
<path fill-rule="evenodd" clip-rule="evenodd" d="M325.618 207.379C325.618 212.098 318.536 212.098 318.536 207.379C318.536 202.66 325.618 202.66 325.618 207.379Z" fill="#1DAEFF"/>
<path fill-rule="evenodd" clip-rule="evenodd" d="M338.358 207.379C338.358 212.098 331.28 212.098 331.28 207.379C331.28 202.66 338.358 202.66 338.358 207.379Z" fill="#1DAEFF"/>
<path fill-rule="evenodd" clip-rule="evenodd" d="M351.098 207.379C351.098 212.098 344.02 212.098 344.02 207.379C344.02 202.66 351.098 202.66 351.098 207.379Z" fill="#1DAEFF"/>
<path fill-rule="evenodd" clip-rule="evenodd" d="M363.838 207.379C363.838 212.098 356.76 212.098 356.76 207.379C356.76 202.66 363.838 202.66 363.838 207.379Z" fill="#1DAEFF"/>
<path fill-rule="evenodd" clip-rule="evenodd" d="M376.578 207.379C376.578 212.098 369.5 212.098 369.5 207.379C369.5 202.66 376.578 202.66 376.578 207.379Z" fill="#1DAEFF"/>
<path fill-rule="evenodd" clip-rule="evenodd" d="M389.318 207.379C389.318 212.098 382.24 212.098 382.24 207.379C382.24 202.66 389.318 202.66 389.318 207.379Z" fill="#1DAEFF"/>
<path fill-rule="evenodd" clip-rule="evenodd" d="M402.058 207.379C402.058 212.098 394.98 212.098 394.98 207.379C394.98 202.66 402.058 202.66 402.058 207.379Z" fill="#1DAEFF"/>
<path fill-rule="evenodd" clip-rule="evenodd" d="M414.798 207.379C414.798 212.098 407.72 212.098 407.72 207.379C407.72 202.66 414.798 202.66 414.798 207.379Z" fill="#1DAEFF"/>
<path fill-rule="evenodd" clip-rule="evenodd" d="M427.538 207.379C427.538 212.098 420.46 212.098 420.46 207.379C420.46 202.66 427.538 202.66 427.538 207.379Z" fill="#1DAEFF"/>
<path fill-rule="evenodd" clip-rule="evenodd" d="M440.288 207.379C440.288 212.098 433.21 212.098 433.21 207.379C433.21 202.66 440.288 202.66 440.288 207.379Z" fill="#1DAEFF"/>
<path fill-rule="evenodd" clip-rule="evenodd" d="M32.5581 220.139C32.5581 224.858 25.48 224.858 25.48 220.139C25.48 215.42 32.5581 215.42 32.5581 220.139Z" fill="#1DAEFF"/>
<path fill-rule="evenodd" clip-rule="evenodd" d="M58.0381 220.139C58.0381 224.858 50.96 224.858 50.96 220.139C50.96 215.42 58.0381 215.42 58.0381 220.139Z" fill="#1DAEFF"/>
<path fill-rule="evenodd" clip-rule="evenodd" d="M210.948 220.139C210.948 224.858 203.87 224.858 203.87 220.139C203.87 215.42 210.948 215.42 210.948 220.139Z" fill="#1DAEFF"/>
<path fill-rule="evenodd" clip-rule="evenodd" d="M223.688 220.139C223.688 224.858 216.61 224.858 216.61 220.139C216.61 215.42 223.688 215.42 223.688 220.139Z" fill="#1DAEFF"/>
<path fill-rule="evenodd" clip-rule="evenodd" d="M236.428 220.139C236.428 224.858 229.35 224.858 229.35 220.139C229.35 215.42 236.428 215.42 236.428 220.139Z" fill="#1DAEFF"/>
<path fill-rule="evenodd" clip-rule="evenodd" d="M249.168 220.139C249.168 224.858 242.09 224.858 242.09 220.139C242.09 215.42 249.168 215.42 249.168 220.139Z" fill="#1DAEFF"/>
<path fill-rule="evenodd" clip-rule="evenodd" d="M261.908 220.139C261.908 224.858 254.83 224.858 254.83 220.139C254.83 215.42 261.908 215.42 261.908 220.139Z" fill="#1DAEFF"/>
<path fill-rule="evenodd" clip-rule="evenodd" d="M274.648 220.139C274.648 224.858 267.57 224.858 267.57 220.139C267.57 215.42 274.648 215.42 274.648 220.139Z" fill="#1DAEFF"/>
<path fill-rule="evenodd" clip-rule="evenodd" d="M287.388 220.139C287.388 224.858 280.31 224.858 280.31 220.139C280.31 215.42 287.388 215.42 287.388 220.139Z" fill="#1DAEFF"/>
<path fill-rule="evenodd" clip-rule="evenodd" d="M300.128 220.139C300.128 224.858 293.05 224.858 293.05 220.139C293.05 215.42 300.128 215.42 300.128 220.139Z" fill="#1DAEFF"/>
<path fill-rule="evenodd" clip-rule="evenodd" d="M312.868 220.139C312.868 224.858 305.79 224.858 305.79 220.139C305.79 215.42 312.868 215.42 312.868 220.139Z" fill="#1DAEFF"/>
<path fill-rule="evenodd" clip-rule="evenodd" d="M325.618 220.139C325.618 224.858 318.536 224.858 318.536 220.139C318.536 215.42 325.618 215.42 325.618 220.139Z" fill="#1DAEFF"/>
<path fill-rule="evenodd" clip-rule="evenodd" d="M338.358 220.139C338.358 224.858 331.28 224.858 331.28 220.139C331.28 215.42 338.358 215.42 338.358 220.139Z" fill="#1DAEFF"/>
<path fill-rule="evenodd" clip-rule="evenodd" d="M351.098 220.139C351.098 224.858 344.02 224.858 344.02 220.139C344.02 215.42 351.098 215.42 351.098 220.139Z" fill="#1DAEFF"/>
<path fill-rule="evenodd" clip-rule="evenodd" d="M363.838 220.139C363.838 224.858 356.76 224.858 356.76 220.139C356.76 215.42 363.838 215.42 363.838 220.139Z" fill="#1DAEFF"/>
<path fill-rule="evenodd" clip-rule="evenodd" d="M376.578 220.139C376.578 224.858 369.5 224.858 369.5 220.139C369.5 215.42 376.578 215.42 376.578 220.139Z" fill="#1DAEFF"/>
<path fill-rule="evenodd" clip-rule="evenodd" d="M389.318 220.139C389.318 224.858 382.24 224.858 382.24 220.139C382.24 215.42 389.318 215.42 389.318 220.139Z" fill="#1DAEFF"/>
<path fill-rule="evenodd" clip-rule="evenodd" d="M402.058 220.139C402.058 224.858 394.98 224.858 394.98 220.139C394.98 215.42 402.058 215.42 402.058 220.139Z" fill="#1DAEFF"/>
<path fill-rule="evenodd" clip-rule="evenodd" d="M414.798 220.139C414.798 224.858 407.72 224.858 407.72 220.139C407.72 215.42 414.798 215.42 414.798 220.139Z" fill="#1DAEFF"/>
<path fill-rule="evenodd" clip-rule="evenodd" d="M427.538 220.139C427.538 224.858 420.46 224.858 420.46 220.139C420.46 215.42 427.538 215.42 427.538 220.139Z" fill="#1DAEFF"/>
<path fill-rule="evenodd" clip-rule="evenodd" d="M440.288 220.139C440.288 224.858 433.21 224.858 433.21 220.139C433.21 215.42 440.288 215.42 440.288 220.139Z" fill="#1DAEFF"/>
<path fill-rule="evenodd" clip-rule="evenodd" d="M453.028 220.139C453.028 224.858 445.95 224.858 445.95 220.139C445.95 215.42 453.028 215.42 453.028 220.139Z" fill="#1DAEFF"/>
<path fill-rule="evenodd" clip-rule="evenodd" d="M32.5581 232.879C32.5581 237.598 25.48 237.598 25.48 232.879C25.48 228.16 32.5581 228.16 32.5581 232.879Z" fill="#1DAEFF"/>
<path fill-rule="evenodd" clip-rule="evenodd" d="M223.688 232.879C223.688 237.598 216.61 237.598 216.61 232.879C216.61 228.16 223.688 228.16 223.688 232.879Z" fill="#1DAEFF"/>
<path fill-rule="evenodd" clip-rule="evenodd" d="M236.428 232.879C236.428 237.598 229.35 237.598 229.35 232.879C229.35 228.16 236.428 228.16 236.428 232.879Z" fill="#1DAEFF"/>
<path fill-rule="evenodd" clip-rule="evenodd" d="M249.168 232.879C249.168 237.598 242.09 237.598 242.09 232.879C242.09 228.16 249.168 228.16 249.168 232.879Z" fill="#1DAEFF"/>
<path fill-rule="evenodd" clip-rule="evenodd" d="M261.908 232.879C261.908 237.598 254.83 237.598 254.83 232.879C254.83 228.16 261.908 228.16 261.908 232.879Z" fill="#1DAEFF"/>
<path fill-rule="evenodd" clip-rule="evenodd" d="M274.648 232.879C274.648 237.598 267.57 237.598 267.57 232.879C267.57 228.16 274.648 228.16 274.648 232.879Z" fill="#1DAEFF"/>
<path fill-rule="evenodd" clip-rule="evenodd" d="M287.388 232.879C287.388 237.598 280.31 237.598 280.31 232.879C280.31 228.16 287.388 228.16 287.388 232.879Z" fill="#1DAEFF"/>
<path fill-rule="evenodd" clip-rule="evenodd" d="M300.128 232.879C300.128 237.598 293.05 237.598 293.05 232.879C293.05 228.16 300.128 228.16 300.128 232.879Z" fill="#1DAEFF"/>
<path fill-rule="evenodd" clip-rule="evenodd" d="M312.868 232.879C312.868 237.598 305.79 237.598 305.79 232.879C305.79 228.16 312.868 228.16 312.868 232.879Z" fill="#1DAEFF"/>
<path fill-rule="evenodd" clip-rule="evenodd" d="M325.618 232.879C325.618 237.598 318.536 237.598 318.536 232.879C318.536 228.16 325.618 228.16 325.618 232.879Z" fill="#1DAEFF"/>
<path fill-rule="evenodd" clip-rule="evenodd" d="M338.358 232.879C338.358 237.598 331.28 237.598 331.28 232.879C331.28 228.16 338.358 228.16 338.358 232.879Z" fill="#1DAEFF"/>
<path fill-rule="evenodd" clip-rule="evenodd" d="M351.098 232.879C351.098 237.598 344.02 237.598 344.02 232.879C344.02 228.16 351.098 228.16 351.098 232.879Z" fill="#1DAEFF"/>
<path fill-rule="evenodd" clip-rule="evenodd" d="M363.838 232.879C363.838 237.598 356.76 237.598 356.76 232.879C356.76 228.16 363.838 228.16 363.838 232.879Z" fill="#1DAEFF"/>
<path fill-rule="evenodd" clip-rule="evenodd" d="M376.578 232.879C376.578 237.598 369.5 237.598 369.5 232.879C369.5 228.16 376.578 228.16 376.578 232.879Z" fill="#1DAEFF"/>
<path fill-rule="evenodd" clip-rule="evenodd" d="M389.318 232.879C389.318 237.598 382.24 237.598 382.24 232.879C382.24 228.16 389.318 228.16 389.318 232.879Z" fill="#1DAEFF"/>
<path fill-rule="evenodd" clip-rule="evenodd" d="M402.058 232.879C402.058 237.598 394.98 237.598 394.98 232.879C394.98 228.16 402.058 228.16 402.058 232.879Z" fill="#1DAEFF"/>
<path fill-rule="evenodd" clip-rule="evenodd" d="M414.798 232.879C414.798 237.598 407.72 237.598 407.72 232.879C407.72 228.16 414.798 228.16 414.798 232.879Z" fill="#1DAEFF"/>
<path fill-rule="evenodd" clip-rule="evenodd" d="M427.538 232.879C427.538 237.598 420.46 237.598 420.46 232.879C420.46 228.16 427.538 228.16 427.538 232.879Z" fill="#1DAEFF"/>
<path fill-rule="evenodd" clip-rule="evenodd" d="M440.288 232.879C440.288 237.598 433.21 237.598 433.21 232.879C433.21 228.16 440.288 228.16 440.288 232.879Z" fill="#1DAEFF"/>
<path fill-rule="evenodd" clip-rule="evenodd" d="M453.028 232.879C453.028 237.598 445.95 237.598 445.95 232.879C445.95 228.16 453.028 228.16 453.028 232.879Z" fill="#1DAEFF"/>
<path fill-rule="evenodd" clip-rule="evenodd" d="M19.8281 245.619C19.8281 250.338 12.75 250.338 12.75 245.619C12.75 240.896 19.8281 240.896 19.8281 245.619Z" fill="#1DAEFF"/>
<path fill-rule="evenodd" clip-rule="evenodd" d="M32.5581 245.619C32.5581 250.338 25.48 250.338 25.48 245.619C25.48 240.896 32.5581 240.896 32.5581 245.619Z" fill="#1DAEFF"/>
<path fill-rule="evenodd" clip-rule="evenodd" d="M210.948 245.619C210.948 250.338 203.87 250.338 203.87 245.619C203.87 240.896 210.948 240.896 210.948 245.619Z" fill="#1DAEFF"/>
<path fill-rule="evenodd" clip-rule="evenodd" d="M223.688 245.619C223.688 250.338 216.61 250.338 216.61 245.619C216.61 240.896 223.688 240.896 223.688 245.619Z" fill="#1DAEFF"/>
<path fill-rule="evenodd" clip-rule="evenodd" d="M236.428 245.619C236.428 250.338 229.35 250.338 229.35 245.619C229.35 240.896 236.428 240.896 236.428 245.619Z" fill="#1DAEFF"/>
<path fill-rule="evenodd" clip-rule="evenodd" d="M249.168 245.619C249.168 250.338 242.09 250.338 242.09 245.619C242.09 240.896 249.168 240.896 249.168 245.619Z" fill="#1DAEFF"/>
<path fill-rule="evenodd" clip-rule="evenodd" d="M274.648 245.619C274.648 250.338 267.57 250.338 267.57 245.619C267.57 240.896 274.648 240.896 274.648 245.619Z" fill="#1DAEFF"/>
<path fill-rule="evenodd" clip-rule="evenodd" d="M300.128 245.619C300.128 250.338 293.05 250.338 293.05 245.619C293.05 240.896 300.128 240.896 300.128 245.619Z" fill="#1DAEFF"/>
<path fill-rule="evenodd" clip-rule="evenodd" d="M312.868 245.619C312.868 250.338 305.79 250.338 305.79 245.619C305.79 240.896 312.868 240.896 312.868 245.619Z" fill="#1DAEFF"/>
<path fill-rule="evenodd" clip-rule="evenodd" d="M325.618 245.619C325.618 250.338 318.536 250.338 318.536 245.619C318.536 240.896 325.618 240.896 325.618 245.619Z" fill="#1DAEFF"/>
<path fill-rule="evenodd" clip-rule="evenodd" d="M338.358 245.619C338.358 250.338 331.28 250.338 331.28 245.619C331.28 240.896 338.358 240.896 338.358 245.619Z" fill="#1DAEFF"/>
<path fill-rule="evenodd" clip-rule="evenodd" d="M351.098 245.619C351.098 250.338 344.02 250.338 344.02 245.619C344.02 240.896 351.098 240.896 351.098 245.619Z" fill="#1DAEFF"/>
<path fill-rule="evenodd" clip-rule="evenodd" d="M363.838 245.619C363.838 250.338 356.76 250.338 356.76 245.619C356.76 240.896 363.838 240.896 363.838 245.619Z" fill="#1DAEFF"/>
<path fill-rule="evenodd" clip-rule="evenodd" d="M376.578 245.619C376.578 250.338 369.5 250.338 369.5 245.619C369.5 240.896 376.578 240.896 376.578 245.619Z" fill="#1DAEFF"/>
<path fill-rule="evenodd" clip-rule="evenodd" d="M389.318 245.619C389.318 250.338 382.24 250.338 382.24 245.619C382.24 240.896 389.318 240.896 389.318 245.619Z" fill="#1DAEFF"/>
<path fill-rule="evenodd" clip-rule="evenodd" d="M402.058 245.619C402.058 250.338 394.98 250.338 394.98 245.619C394.98 240.896 402.058 240.896 402.058 245.619Z" fill="#1DAEFF"/>
<path fill-rule="evenodd" clip-rule="evenodd" d="M414.798 245.619C414.798 250.338 407.72 250.338 407.72 245.619C407.72 240.896 414.798 240.896 414.798 245.619Z" fill="#1DAEFF"/>
<path fill-rule="evenodd" clip-rule="evenodd" d="M427.538 245.619C427.538 250.338 420.46 250.338 420.46 245.619C420.46 240.896 427.538 240.896 427.538 245.619Z" fill="#1DAEFF"/>
<path fill-rule="evenodd" clip-rule="evenodd" d="M440.288 245.619C440.288 250.338 433.21 250.338 433.21 245.619C433.21 240.896 440.288 240.896 440.288 245.619Z" fill="#1DAEFF"/>
<path fill-rule="evenodd" clip-rule="evenodd" d="M453.028 245.619C453.028 250.338 445.95 250.338 445.95 245.619C445.95 240.896 453.028 240.896 453.028 245.619Z" fill="#1DAEFF"/>
<path fill-rule="evenodd" clip-rule="evenodd" d="M465.768 245.619C465.768 250.338 458.69 250.338 458.69 245.619C458.69 240.896 465.768 240.896 465.768 245.619Z" fill="#1DAEFF"/>
<path fill-rule="evenodd" clip-rule="evenodd" d="M19.8281 258.359C19.8281 263.078 12.75 263.078 12.75 258.359C12.75 253.64 19.8281 253.64 19.8281 258.359Z" fill="#1DAEFF"/>
<path fill-rule="evenodd" clip-rule="evenodd" d="M210.948 258.359C210.948 263.078 203.87 263.078 203.87 258.359C203.87 253.64 210.948 253.64 210.948 258.359Z" fill="#1DAEFF"/>
<path fill-rule="evenodd" clip-rule="evenodd" d="M312.868 258.359C312.868 263.078 305.79 263.078 305.79 258.359C305.79 253.64 312.868 253.64 312.868 258.359Z" fill="#1DAEFF"/>
<path fill-rule="evenodd" clip-rule="evenodd" d="M325.618 258.359C325.618 263.078 318.536 263.078 318.536 258.359C318.536 253.64 325.618 253.64 325.618 258.359Z" fill="#1DAEFF"/>
<path fill-rule="evenodd" clip-rule="evenodd" d="M338.358 258.359C338.358 263.078 331.28 263.078 331.28 258.359C331.28 253.64 338.358 253.64 338.358 258.359Z" fill="#1DAEFF"/>
<path fill-rule="evenodd" clip-rule="evenodd" d="M351.098 258.359C351.098 263.078 344.02 263.078 344.02 258.359C344.02 253.64 351.098 253.64 351.098 258.359Z" fill="#1DAEFF"/>
<path fill-rule="evenodd" clip-rule="evenodd" d="M363.838 258.359C363.838 263.078 356.76 263.078 356.76 258.359C356.76 253.64 363.838 253.64 363.838 258.359Z" fill="#1DAEFF"/>
<path fill-rule="evenodd" clip-rule="evenodd" d="M376.578 258.359C376.578 263.078 369.5 263.078 369.5 258.359C369.5 253.64 376.578 253.64 376.578 258.359Z" fill="#1DAEFF"/>
<path fill-rule="evenodd" clip-rule="evenodd" d="M389.318 258.359C389.318 263.078 382.24 263.078 382.24 258.359C382.24 253.64 389.318 253.64 389.318 258.359Z" fill="#1DAEFF"/>
<path fill-rule="evenodd" clip-rule="evenodd" d="M402.058 258.359C402.058 263.078 394.98 263.078 394.98 258.359C394.98 253.64 402.058 253.64 402.058 258.359Z" fill="#1DAEFF"/>
<path fill-rule="evenodd" clip-rule="evenodd" d="M414.798 258.359C414.798 263.078 407.72 263.078 407.72 258.359C407.72 253.64 414.798 253.64 414.798 258.359Z" fill="#1DAEFF"/>
<path fill-rule="evenodd" clip-rule="evenodd" d="M427.538 258.359C427.538 263.078 420.46 263.078 420.46 258.359C420.46 253.64 427.538 253.64 427.538 258.359Z" fill="#1DAEFF"/>
<path fill-rule="evenodd" clip-rule="evenodd" d="M440.288 258.359C440.288 263.078 433.21 263.078 433.21 258.359C433.21 253.64 440.288 253.64 440.288 258.359Z" fill="#1DAEFF"/>
<path fill-rule="evenodd" clip-rule="evenodd" d="M453.028 258.359C453.028 263.078 445.95 263.078 445.95 258.359C445.95 253.64 453.028 253.64 453.028 258.359Z" fill="#1DAEFF"/>
<path fill-rule="evenodd" clip-rule="evenodd" d="M465.768 258.359C465.768 263.078 458.69 263.078 458.69 258.359C458.69 253.64 465.768 253.64 465.768 258.359Z" fill="#1DAEFF"/>
<path fill-rule="evenodd" clip-rule="evenodd" d="M338.358 271.099C338.358 275.818 331.28 275.818 331.28 271.099C331.28 266.38 338.358 266.38 338.358 271.099Z" fill="#1DAEFF"/>
<path fill-rule="evenodd" clip-rule="evenodd" d="M351.098 271.099C351.098 275.818 344.02 275.818 344.02 271.099C344.02 266.38 351.098 266.38 351.098 271.099Z" fill="#1DAEFF"/>
<path fill-rule="evenodd" clip-rule="evenodd" d="M363.838 271.099C363.838 275.818 356.76 275.818 356.76 271.099C356.76 266.38 363.838 266.38 363.838 271.099Z" fill="#1DAEFF"/>
<path fill-rule="evenodd" clip-rule="evenodd" d="M376.578 271.099C376.578 275.818 369.5 275.818 369.5 271.099C369.5 266.38 376.578 266.38 376.578 271.099Z" fill="#1DAEFF"/>
<path fill-rule="evenodd" clip-rule="evenodd" d="M389.318 271.099C389.318 275.818 382.24 275.818 382.24 271.099C382.24 266.38 389.318 266.38 389.318 271.099Z" fill="#1DAEFF"/>
<path fill-rule="evenodd" clip-rule="evenodd" d="M402.058 271.099C402.058 275.818 394.98 275.818 394.98 271.099C394.98 266.38 402.058 266.38 402.058 271.099Z" fill="#1DAEFF"/>
<path fill-rule="evenodd" clip-rule="evenodd" d="M414.798 271.099C414.798 275.818 407.72 275.818 407.72 271.099C407.72 266.38 414.798 266.38 414.798 271.099Z" fill="#1DAEFF"/>
<path fill-rule="evenodd" clip-rule="evenodd" d="M427.538 271.099C427.538 275.818 420.46 275.818 420.46 271.099C420.46 266.38 427.538 266.38 427.538 271.099Z" fill="#1DAEFF"/>
<path fill-rule="evenodd" clip-rule="evenodd" d="M440.288 271.099C440.288 275.818 433.21 275.818 433.21 271.099C433.21 266.38 440.288 266.38 440.288 271.099Z" fill="#1DAEFF"/>
<path fill-rule="evenodd" clip-rule="evenodd" d="M453.028 271.099C453.028 275.818 445.95 275.818 445.95 271.099C445.95 266.38 453.028 266.38 453.028 271.099Z" fill="#1DAEFF"/>
<path fill-rule="evenodd" clip-rule="evenodd" d="M351.098 283.839C351.098 288.558 344.02 288.558 344.02 283.839C344.02 279.12 351.098 279.12 351.098 283.839Z" fill="#1DAEFF"/>
<path fill-rule="evenodd" clip-rule="evenodd" d="M363.838 283.839C363.838 288.558 356.76 288.558 356.76 283.839C356.76 279.12 363.838 279.12 363.838 283.839Z" fill="#1DAEFF"/>
<path fill-rule="evenodd" clip-rule="evenodd" d="M376.578 283.839C376.578 288.558 369.5 288.558 369.5 283.839C369.5 279.12 376.578 279.12 376.578 283.839Z" fill="#1DAEFF"/>
<path fill-rule="evenodd" clip-rule="evenodd" d="M389.318 283.839C389.318 288.558 382.24 288.558 382.24 283.839C382.24 279.12 389.318 279.12 389.318 283.839Z" fill="#1DAEFF"/>
<path fill-rule="evenodd" clip-rule="evenodd" d="M402.058 283.839C402.058 288.558 394.98 288.558 394.98 283.839C394.98 279.12 402.058 279.12 402.058 283.839Z" fill="#1DAEFF"/>
<path fill-rule="evenodd" clip-rule="evenodd" d="M414.798 283.839C414.798 288.558 407.72 288.558 407.72 283.839C407.72 279.12 414.798 279.12 414.798 283.839Z" fill="#1DAEFF"/>
<path fill-rule="evenodd" clip-rule="evenodd" d="M427.538 283.839C427.538 288.558 420.46 288.558 420.46 283.839C420.46 279.12 427.538 279.12 427.538 283.839Z" fill="#1DAEFF"/>
<path fill-rule="evenodd" clip-rule="evenodd" d="M440.288 283.839C440.288 288.558 433.21 288.558 433.21 283.839C433.21 279.12 440.288 279.12 440.288 283.839Z" fill="#1DAEFF"/>
<path fill-rule="evenodd" clip-rule="evenodd" d="M453.028 283.839C453.028 288.558 445.95 288.558 445.95 283.839C445.95 279.12 453.028 279.12 453.028 283.839Z" fill="#1DAEFF"/>
<path fill-rule="evenodd" clip-rule="evenodd" d="M351.098 296.589C351.098 301.308 344.02 301.308 344.02 296.589C344.02 291.87 351.098 291.87 351.098 296.589Z" fill="#1DAEFF"/>
<path fill-rule="evenodd" clip-rule="evenodd" d="M363.838 296.589C363.838 301.308 356.76 301.308 356.76 296.589C356.76 291.87 363.838 291.87 363.838 296.589Z" fill="#1DAEFF"/>
<path fill-rule="evenodd" clip-rule="evenodd" d="M376.578 296.589C376.578 301.308 369.5 301.308 369.5 296.589C369.5 291.87 376.578 291.87 376.578 296.589Z" fill="#1DAEFF"/>
<path fill-rule="evenodd" clip-rule="evenodd" d="M389.318 296.589C389.318 301.308 382.24 301.308 382.24 296.589C382.24 291.87 389.318 291.87 389.318 296.589Z" fill="#1DAEFF"/>
<path fill-rule="evenodd" clip-rule="evenodd" d="M402.058 296.589C402.058 301.308 394.98 301.308 394.98 296.589C394.98 291.87 402.058 291.87 402.058 296.589Z" fill="#1DAEFF"/>
<path fill-rule="evenodd" clip-rule="evenodd" d="M414.798 296.589C414.798 301.308 407.72 301.308 407.72 296.589C407.72 291.87 414.798 291.87 414.798 296.589Z" fill="#1DAEFF"/>
<path fill-rule="evenodd" clip-rule="evenodd" d="M427.538 296.589C427.538 301.308 420.46 301.308 420.46 296.589C420.46 291.87 427.538 291.87 427.538 296.589Z" fill="#1DAEFF"/>
<path fill-rule="evenodd" clip-rule="evenodd" d="M440.288 296.589C440.288 301.308 433.21 301.308 433.21 296.589C433.21 291.87 440.288 291.87 440.288 296.589Z" fill="#1DAEFF"/>
<path fill-rule="evenodd" clip-rule="evenodd" d="M363.838 309.319C363.838 314.038 356.76 314.038 356.76 309.319C356.76 304.6 363.838 304.6 363.838 309.319Z" fill="#1DAEFF"/>
<path fill-rule="evenodd" clip-rule="evenodd" d="M376.578 309.319C376.578 314.038 369.5 314.038 369.5 309.319C369.5 304.6 376.578 304.6 376.578 309.319Z" fill="#1DAEFF"/>
<path fill-rule="evenodd" clip-rule="evenodd" d="M389.318 309.319C389.318 314.038 382.24 314.038 382.24 309.319C382.24 304.6 389.318 304.6 389.318 309.319Z" fill="#1DAEFF"/>
<path fill-rule="evenodd" clip-rule="evenodd" d="M427.538 309.319C427.538 314.038 420.46 314.038 420.46 309.319C420.46 304.6 427.538 304.6 427.538 309.319Z" fill="#1DAEFF"/>
</svg>
