<svg width="250" height="250" viewBox="0 0 250 250" fill="none" xmlns="http://www.w3.org/2000/svg">
<path d="M138.837 192.998C136.568 192.998 134.233 192.293 131.977 191.614C129.809 190.961 127.566 190.286 125.497 190.286C123.427 190.286 121.184 190.961 119.018 191.616C116.76 192.295 114.427 193 112.158 193C111.414 193 110.698 192.922 110.032 192.772C106.965 192.075 104.553 189.855 102.218 187.71C100.527 186.155 98.928 184.685 97.1668 183.835C95.3537 182.96 93.1765 182.617 90.8701 182.253C87.7709 181.764 84.5671 181.256 82.1647 179.337C79.7495 177.407 78.5429 174.389 77.3785 171.468C76.5156 169.307 75.7001 167.266 74.4538 165.706C73.2182 164.159 71.418 162.918 69.5101 161.607C66.9107 159.816 64.2239 157.967 62.8709 155.163C61.5448 152.413 61.7656 149.187 61.9768 146.068C62.1298 143.831 62.287 141.519 61.8367 139.533C61.409 137.65 60.3404 135.779 59.2082 133.798C57.631 131.034 56 128.178 56 125C56 121.822 57.631 118.966 59.206 116.205C60.3382 114.224 61.4069 112.351 61.8345 110.469C62.2859 108.485 62.1275 106.171 61.9746 103.935C61.7613 100.815 61.5426 97.5885 62.8676 94.8403C64.2207 92.0361 66.9095 90.1854 69.508 88.3972C71.4147 87.084 73.2159 85.844 74.4516 84.2982C75.6981 82.7372 76.5136 80.6967 77.3755 78.5357C78.5411 75.6152 79.7477 72.5956 82.1628 70.6673C84.5641 68.7487 87.769 68.2424 90.8682 67.7534C93.1736 67.3893 95.3519 67.0446 97.1649 66.1709C98.9273 65.322 100.526 63.8526 102.216 62.2958C104.553 60.1445 106.965 57.9274 110.03 57.2305C110.696 57.0797 111.414 57.0022 112.156 57.0022C114.425 57.0022 116.758 57.7045 119.016 58.3864C121.185 59.0393 123.428 59.7137 125.497 59.7137C127.567 59.7137 129.81 59.0393 131.976 58.3843C134.234 57.7045 136.567 57 138.836 57C139.591 57 140.286 57.0754 140.963 57.2284C144.03 57.9254 146.442 60.1445 148.776 62.2896C150.467 63.8451 152.066 65.3146 153.827 66.1646C155.64 67.0404 157.818 67.383 160.124 67.7471C163.223 68.2362 166.427 68.7436 168.829 70.661C171.245 72.5905 172.451 75.6089 173.616 78.5294C174.478 80.6904 175.293 82.7318 176.54 84.2927C177.776 85.8397 179.576 87.0806 181.484 88.3917C184.083 90.1822 186.77 92.0318 188.123 94.8359C189.449 97.5852 189.228 100.812 189.017 103.93C188.864 106.168 188.707 108.48 189.157 110.465C189.585 112.348 190.654 114.219 191.786 116.201C193.363 118.966 194.994 121.82 194.994 125C194.994 128.178 193.363 131.034 191.788 133.797C190.656 135.778 189.587 137.65 189.16 139.532C188.708 141.517 188.867 143.831 189.02 146.067C189.233 149.187 189.451 152.413 188.126 155.161C186.773 157.966 184.085 159.816 181.486 161.604C179.579 162.918 177.778 164.158 176.542 165.703C175.296 167.264 174.481 169.305 173.619 171.466C172.453 174.386 171.246 177.406 168.831 179.334C166.43 181.253 163.225 181.759 160.126 182.248C157.821 182.612 155.642 182.957 153.829 183.831C152.067 184.68 150.468 186.149 148.778 187.706C146.445 189.851 144.033 192.069 140.964 192.767C140.297 192.92 139.58 192.998 138.837 192.998L138.837 192.998ZM125.497 188.179C127.877 188.179 130.269 188.9 132.584 189.598C134.793 190.264 136.879 190.892 138.838 190.892C139.434 190.892 139.977 190.833 140.498 190.716C143.019 190.143 145.124 188.208 147.352 186.158C149.082 184.567 150.871 182.923 152.915 181.937C155.008 180.927 157.443 180.542 159.799 180.171C162.758 179.703 165.551 179.261 167.517 177.691C169.497 176.109 170.551 173.474 171.663 170.687C172.545 168.479 173.455 166.196 174.897 164.39C176.327 162.599 178.344 161.213 180.293 159.87C182.775 158.162 185.119 156.548 186.23 154.246C187.313 151.998 187.123 149.187 186.918 146.209C186.754 143.82 186.586 141.35 187.106 139.064C187.604 136.877 188.801 134.779 189.959 132.75C191.466 130.111 192.889 127.618 192.889 125C192.889 122.379 191.465 119.886 189.959 117.249C188.801 115.221 187.604 113.124 187.106 110.935C186.587 108.649 186.756 106.178 186.918 103.79C187.121 100.813 187.313 97.9998 186.23 95.7535C185.119 93.4524 182.775 91.8366 180.293 90.1289C178.344 88.7866 176.328 87.4002 174.898 85.6086C173.455 83.803 172.544 81.5203 171.663 79.3119C170.549 76.524 169.498 73.89 167.518 72.3084C165.55 70.7377 162.756 70.296 159.799 69.8285C157.444 69.4568 155.008 69.0722 152.915 68.0617C150.872 67.075 149.083 65.4299 147.352 63.8409C145.123 61.7919 143.017 59.8561 140.496 59.283C139.974 59.1645 139.432 59.1074 138.836 59.1074C136.878 59.1074 134.793 59.7354 132.585 60.4012C130.27 61.0982 127.877 61.82 125.497 61.82C123.118 61.82 120.725 61.0993 118.41 60.4012C116.202 59.7354 114.115 59.1074 112.159 59.1074C111.563 59.1074 111.02 59.1656 110.499 59.283C107.978 59.8561 105.873 61.7909 103.645 63.8409C101.915 65.432 100.125 67.0758 98.0817 68.0617C95.9885 69.0722 93.5539 69.4568 91.1979 69.8285C88.2387 70.296 85.4453 70.7377 83.4792 72.3084C81.4992 73.8898 80.4456 76.5248 79.3339 79.3119C78.4516 81.5203 77.5413 83.803 76.0998 85.6086C74.6692 87.4001 72.6525 88.7864 70.7038 90.1289C68.2218 91.8375 65.8776 93.4513 64.767 95.7535C63.6833 98.0007 63.874 100.813 64.0787 103.79C64.2424 106.18 64.4105 108.649 63.8901 110.936C63.3924 113.124 62.1956 115.221 61.0374 117.25C59.5292 119.886 58.1061 122.379 58.1061 125C58.1061 127.621 59.5303 130.114 61.0363 132.751C62.1944 134.778 63.3913 136.876 63.889 139.065C64.4083 141.351 64.2391 143.821 64.0776 146.209C63.874 149.187 63.6822 152 64.7659 154.246C65.8766 156.547 68.2207 158.163 70.7027 159.87C72.6515 161.213 74.6671 162.599 76.0976 164.391C77.5401 166.196 78.4515 168.479 79.3325 170.687C80.4465 173.475 81.4979 176.109 83.4778 177.691C85.445 179.262 88.2395 179.703 91.1987 180.171C93.5536 180.543 95.9893 180.927 98.0825 181.938C100.126 182.924 101.915 184.569 103.646 186.158C105.874 188.207 107.981 190.143 110.501 190.716C111.024 190.835 111.566 190.892 112.161 190.892C114.12 190.892 116.207 190.264 118.415 189.598C120.725 188.901 123.117 188.179 125.497 188.179L125.497 188.179Z" fill="#1DAEFF"/>
<path d="M125.497 181.862C107.381 181.862 90.1802 173.082 79.4853 158.375C79.1428 157.904 79.2473 157.246 79.717 156.904C80.1877 156.56 80.846 156.666 81.1874 157.136C91.4893 171.3 108.053 179.756 125.498 179.756C137.048 179.756 148.1 176.187 157.461 169.434C157.934 169.096 158.591 169.202 158.931 169.672C159.271 170.143 159.164 170.801 158.693 171.143C148.971 178.156 137.493 181.862 125.497 181.862L125.497 181.862ZM181.305 126.269H181.297C180.715 126.265 180.249 125.791 180.251 125.208V124.999C180.251 107.639 171.859 91.1219 157.801 80.8158C157.331 80.4711 157.231 79.8118 157.573 79.3443C157.918 78.8746 158.575 78.7733 159.045 79.117C173.644 89.8207 182.357 106.971 182.357 125.002V125.226C182.353 125.804 181.882 126.271 181.305 126.271L181.305 126.269ZM72.4391 108.727C72.3314 108.727 72.2193 108.71 72.1116 108.674C71.5589 108.493 71.2573 107.898 71.4383 107.346C77.0874 90.0901 90.7743 76.4581 108.049 70.8762C108.607 70.6974 109.196 71.0012 109.375 71.5538C109.553 72.1086 109.25 72.7012 108.697 72.88C92.0596 78.2544 78.8794 91.3834 73.4382 108.001C73.2927 108.445 72.8812 108.727 72.4374 108.727L72.4391 108.727Z" fill="#1DAEFF"/>
<path d="M121.741 145.872C121.421 145.872 121.117 145.727 120.916 145.473L102.723 122.535C102.362 122.079 102.438 121.417 102.894 121.056C103.35 120.696 104.01 120.771 104.373 121.227L121.594 142.943L146.533 99.016C146.821 98.5108 147.464 98.3351 147.969 98.6206C148.476 98.9083 148.653 99.5503 148.365 100.057L122.657 145.338C122.483 145.641 122.172 145.841 121.823 145.868C121.795 145.871 121.767 145.872 121.741 145.872L121.741 145.872Z" fill="#1DAEFF"/>
</svg>
