<svg width="250" height="250" viewBox="0 0 250 250" fill="none" xmlns="http://www.w3.org/2000/svg">
<path d="M163.956 63.1306C146.601 63.1306 129.957 70.0248 117.688 82.2965C105.416 94.5668 98.522 111.21 98.522 128.564C98.522 145.919 105.416 162.562 117.688 174.836C129.958 187.106 146.602 194 163.956 194C181.31 194 197.954 187.106 210.223 174.836C222.495 162.564 229.389 145.92 229.389 128.564C229.389 111.21 222.495 94.566 210.223 82.2965C197.953 70.0248 181.31 63.1306 163.956 63.1306ZM163.956 190.728C147.468 190.728 131.658 184.178 120.002 172.522C108.344 160.863 101.795 145.052 101.795 128.565C101.795 112.079 108.344 96.2666 120.002 84.6114C131.659 72.9529 147.47 66.4038 163.956 66.4038C180.441 66.4038 196.254 72.9533 207.909 84.6114C219.567 96.2685 226.116 112.081 226.116 128.565C226.097 145.046 219.542 160.847 207.888 172.499C196.236 184.153 180.435 190.708 163.954 190.727L163.956 190.728Z" fill="#1DAEFF"/>
<path d="M166.371 128.565C166.371 129.9 165.29 130.981 163.955 130.981C162.62 130.981 161.54 129.9 161.54 128.565C161.54 127.231 162.62 126.149 163.955 126.149C165.29 126.149 166.371 127.231 166.371 128.565Z" fill="#1DAEFF"/>
<path d="M163.993 122.07C164.427 122.07 164.843 121.898 165.15 121.591C165.457 121.284 165.629 120.868 165.629 120.434V88.3712C165.629 87.4686 164.896 86.7354 163.993 86.7354C163.089 86.7354 162.357 87.4686 162.357 88.3712V120.434C162.357 121.338 163.089 122.07 163.993 122.07Z" fill="#1DAEFF"/>
<path d="M206.032 128.434C206.032 128 205.859 127.584 205.553 127.277C205.246 126.97 204.83 126.798 204.396 126.798H172.333C171.429 126.798 170.697 127.531 170.697 128.434C170.697 129.338 171.429 130.07 172.333 130.07H204.396C204.83 130.07 205.246 129.897 205.553 129.591C205.859 129.284 206.032 128.868 206.032 128.434Z" fill="#1DAEFF"/>
<path d="M163.993 81.8036C164.427 81.8036 164.843 81.6312 165.15 81.3245C165.457 81.0178 165.629 80.6015 165.629 80.1677V74.1268C165.629 73.2242 164.896 72.491 163.993 72.491C163.089 72.491 162.357 73.2242 162.357 74.1268V80.1677C162.357 80.6015 162.53 81.0178 162.836 81.3245C163.143 81.6313 163.559 81.8036 163.993 81.8036Z" fill="#1DAEFF"/>
<path d="M138.227 80.5736C138.009 80.1982 137.651 79.9236 137.232 79.8111C136.813 79.6987 136.366 79.7571 135.99 79.9732C135.615 80.1909 135.34 80.5487 135.228 80.9679C135.116 81.3871 135.175 81.834 135.392 82.2094L138.412 87.4397C138.863 88.2226 139.864 88.4898 140.647 88.0385C141.428 87.5872 141.697 86.5867 141.246 85.8038L138.227 80.5736Z" fill="#1DAEFF"/>
<path d="M122.945 102.877L117.715 99.8582H117.713C117.338 99.6406 116.891 99.5821 116.472 99.6946C116.053 99.8071 115.695 100.082 115.479 100.457C115.261 100.832 115.203 101.279 115.315 101.699C115.428 102.118 115.702 102.476 116.078 102.692L121.308 105.711L121.309 105.712C122.092 106.164 123.091 105.895 123.544 105.112C123.995 104.331 123.727 103.33 122.945 102.877L122.945 102.877Z" fill="#1DAEFF"/>
<path d="M117.269 128.453C117.269 128.019 117.097 127.603 116.79 127.296C116.483 126.989 116.067 126.817 115.633 126.817H109.594C108.691 126.817 107.958 127.549 107.958 128.453C107.958 129.355 108.691 130.089 109.594 130.089H115.633C116.067 130.089 116.483 129.916 116.79 129.61C117.097 129.303 117.269 128.887 117.269 128.453Z" fill="#1DAEFF"/>
<path d="M121.274 151.201L116.045 154.222L116.044 154.22C115.668 154.438 115.394 154.794 115.281 155.214C115.169 155.633 115.229 156.08 115.445 156.455C115.662 156.83 116.019 157.105 116.438 157.217C116.857 157.33 117.304 157.27 117.679 157.054L122.91 154.033C123.285 153.816 123.56 153.459 123.672 153.04C123.785 152.621 123.725 152.174 123.509 151.799C123.291 151.423 122.933 151.149 122.515 151.036C122.096 150.924 121.649 150.984 121.274 151.201H121.274Z" fill="#1DAEFF"/>
<path d="M140.582 168.899C140.207 168.681 139.76 168.623 139.341 168.735C138.922 168.846 138.564 169.121 138.348 169.498L135.329 174.726H135.327C134.877 175.509 135.145 176.51 135.928 176.961C136.71 177.412 137.709 177.145 138.162 176.362L141.181 171.133C141.633 170.351 141.365 169.35 140.582 168.899H140.582Z" fill="#1DAEFF"/>
<path d="M163.918 175.173C163.014 175.173 162.282 175.906 162.282 176.809V182.848C162.282 183.752 163.014 184.484 163.918 184.484C164.821 184.484 165.554 183.752 165.554 182.848V176.809C165.554 176.375 165.382 175.959 165.075 175.652C164.768 175.345 164.352 175.173 163.918 175.173Z" fill="#1DAEFF"/>
<path d="M189.501 169.534C189.284 169.157 188.927 168.883 188.507 168.77C188.088 168.658 187.642 168.716 187.265 168.934C186.89 169.15 186.615 169.508 186.503 169.927C186.39 170.346 186.45 170.793 186.666 171.17L189.685 176.4C190.138 177.182 191.139 177.449 191.92 176.998C192.703 176.546 192.972 175.546 192.521 174.764L189.501 169.534Z" fill="#1DAEFF"/>
<path d="M211.831 154.282L206.601 151.262C206.225 151.044 205.778 150.986 205.359 151.098C204.94 151.209 204.582 151.484 204.365 151.861C204.148 152.236 204.09 152.683 204.202 153.102C204.315 153.522 204.59 153.879 204.965 154.096L210.195 157.116C210.978 157.567 211.979 157.299 212.43 156.516C212.881 155.734 212.612 154.734 211.831 154.282L211.831 154.282Z" fill="#1DAEFF"/>
<path d="M210.639 128.524C210.639 128.958 210.811 129.374 211.118 129.681C211.424 129.987 211.841 130.16 212.275 130.16H218.312C219.217 130.16 219.948 129.428 219.948 128.524C219.948 127.621 219.217 126.888 218.312 126.888H212.275C211.372 126.888 210.639 127.621 210.639 128.524Z" fill="#1DAEFF"/>
<path d="M204.402 105.177C204.854 105.958 205.853 106.227 206.636 105.776L211.865 102.757H211.867C212.242 102.541 212.516 102.183 212.629 101.763C212.741 101.344 212.683 100.897 212.465 100.522C212.249 100.147 211.891 99.872 211.472 99.7595C211.053 99.6471 210.606 99.7055 210.231 99.9231L205.002 102.942H205C204.219 103.393 203.95 104.394 204.402 105.177L204.402 105.177Z" fill="#1DAEFF"/>
<path d="M187.329 88.0779C188.11 88.5292 189.111 88.2619 189.562 87.479L192.582 82.2502C193.034 81.4674 192.765 80.4683 191.984 80.017C191.202 79.5657 190.202 79.833 189.75 80.6144L186.73 85.8432C186.512 86.2185 186.454 86.6655 186.566 87.0846C186.679 87.5038 186.952 87.8617 187.329 88.0778V88.0779Z" fill="#1DAEFF"/>
<path d="M160.086 59.2717H167.333C168.237 59.2717 168.969 58.5385 168.969 57.6359C168.969 56.7317 168.237 56 167.333 56H160.086C159.181 56 158.45 56.7317 158.45 57.6359C158.45 58.5385 159.181 59.2717 160.086 59.2717Z" fill="#1DAEFF"/>
<path d="M21.6359 127.555H83.7985C84.7026 127.555 85.4344 126.824 85.4344 125.92C85.4344 125.015 84.7026 124.284 83.7985 124.284H21.6359C20.7317 124.284 20 125.015 20 125.92C20 126.824 20.7317 127.555 21.6359 127.555Z" fill="#1DAEFF"/>
<path d="M24.1406 109.458C24.1406 109.892 24.313 110.308 24.6197 110.615C24.9264 110.922 25.3427 111.094 25.7765 111.094H87.9392C88.8433 111.094 89.575 110.362 89.575 109.458C89.575 108.554 88.8433 107.822 87.9392 107.822H25.7765C24.8724 107.822 24.1406 108.554 24.1406 109.458V109.458Z" fill="#1DAEFF"/>
<path d="M92.0788 94.7373C92.9829 94.7373 93.7147 94.0056 93.7147 93.1014C93.7147 92.1973 92.9829 91.4656 92.0788 91.4656H29.9161C29.012 91.4656 28.2803 92.1973 28.2803 93.1014C28.2803 94.0056 29.012 94.7373 29.9161 94.7373H92.0788Z" fill="#1DAEFF"/>
<path d="M24.1406 142.175C24.1406 142.609 24.313 143.025 24.6197 143.332C24.9264 143.639 25.3427 143.811 25.7765 143.811H87.9392C88.8433 143.811 89.575 143.079 89.575 142.175C89.575 141.271 88.8433 140.539 87.9392 140.539H25.7765C24.8724 140.539 24.1406 141.271 24.1406 142.175V142.175Z" fill="#1DAEFF"/>
<path d="M29.9171 160.172H92.0798C92.9839 160.172 93.7156 159.44 93.7156 158.536C93.7156 157.632 92.9839 156.9 92.0798 156.9H29.9171C29.013 156.9 28.2812 157.632 28.2812 158.536C28.2812 159.44 29.013 160.172 29.9171 160.172V160.172Z" fill="#1DAEFF"/>
</svg>
