<svg width="125" height="25" viewBox="0 0 125 25" fill="none" xmlns="http://www.w3.org/2000/svg">
<g clip-path="url(#clip0_3_8)">
<path d="M10.3428 5.59375H4.48926V8.87207H9.60449V10.8848H4.48926V16H2.35352V3.58105H10.3428V5.59375ZM18.7891 6.82422H20.8105V16H18.7891V14.6816C17.9805 15.707 16.9082 16.2197 15.5723 16.2197C14.7227 16.2197 13.9521 16.0117 13.2607 15.5957C12.5693 15.1738 12.0273 14.5967 11.6348 13.8643C11.248 13.1318 11.0547 12.3145 11.0547 11.4121C11.0547 10.5098 11.248 9.69238 11.6348 8.95996C12.0273 8.22754 12.5693 7.65332 13.2607 7.2373C13.9521 6.81543 14.7227 6.60449 15.5723 6.60449C16.9141 6.60449 17.9863 7.11426 18.7891 8.13379V6.82422ZM15.9678 14.2686C16.7764 14.2686 17.4473 13.9961 17.9805 13.4512C18.5195 12.9004 18.7891 12.2207 18.7891 11.4121C18.7891 10.5977 18.5195 9.91797 17.9805 9.37305C17.4473 8.82227 16.7764 8.54688 15.9678 8.54688C15.1533 8.54688 14.4736 8.82227 13.9287 9.37305C13.3896 9.91797 13.1201 10.5977 13.1201 11.4121C13.1201 12.2207 13.3896 12.9004 13.9287 13.4512C14.4736 13.9961 15.1533 14.2686 15.9678 14.2686ZM26.3213 16.2197C24.8447 16.2197 23.5732 15.751 22.5068 14.8135L23.5527 13.3896C24.3086 14.1104 25.2197 14.4707 26.2861 14.4707C26.8193 14.4707 27.2559 14.3828 27.5957 14.207C27.9355 14.0254 28.1055 13.7764 28.1055 13.46C28.1055 13.3193 28.0674 13.1934 27.9912 13.082C27.9209 12.9707 27.833 12.877 27.7275 12.8008C27.6279 12.7246 27.4785 12.6514 27.2793 12.5811C27.0801 12.5107 26.9043 12.4551 26.752 12.4141C26.6055 12.373 26.3975 12.3203 26.1279 12.2559C25.8584 12.1914 25.6387 12.1387 25.4688 12.0977C25.2988 12.0508 25.085 11.9834 24.8271 11.8955C24.5693 11.8076 24.3555 11.7197 24.1855 11.6318C24.0215 11.5439 23.8428 11.4268 23.6494 11.2803C23.4561 11.1338 23.3037 10.9756 23.1924 10.8057C23.0811 10.6357 22.9873 10.4336 22.9111 10.1992C22.835 9.96484 22.7969 9.70703 22.7969 9.42578C22.7969 8.81641 22.9668 8.29492 23.3066 7.86133C23.6465 7.42773 24.0859 7.11133 24.625 6.91211C25.1641 6.70703 25.7734 6.60449 26.4531 6.60449C27.7949 6.60449 28.958 7.01172 29.9424 7.82617L28.8789 9.25C28.1758 8.65234 27.3789 8.35352 26.4883 8.35352C26.0137 8.35352 25.6211 8.43262 25.3105 8.59082C25.0059 8.74902 24.8535 8.98047 24.8535 9.28516C24.8535 9.40234 24.874 9.50781 24.915 9.60156C24.9561 9.69531 25.0264 9.78027 25.126 9.85645C25.2314 9.93262 25.3311 9.99707 25.4248 10.0498C25.5186 10.1025 25.6562 10.1582 25.8379 10.2168C26.0254 10.2695 26.1807 10.3135 26.3037 10.3486C26.4326 10.3779 26.6143 10.4189 26.8486 10.4717C27.1123 10.5303 27.3291 10.583 27.499 10.6299C27.6748 10.6709 27.8887 10.7354 28.1406 10.8232C28.3984 10.9053 28.6123 10.9932 28.7822 11.0869C28.9521 11.1748 29.1309 11.292 29.3184 11.4385C29.5059 11.5791 29.6553 11.7344 29.7666 11.9043C29.8838 12.0684 29.9775 12.2676 30.0479 12.502C30.124 12.7363 30.1621 12.9912 30.1621 13.2666C30.1621 13.8818 29.9893 14.418 29.6436 14.875C29.2979 15.3262 28.8379 15.6631 28.2637 15.8857C27.6953 16.1084 27.0479 16.2197 26.3213 16.2197ZM34.9697 16.2197C33.4932 16.2197 32.2217 15.751 31.1553 14.8135L32.2012 13.3896C32.957 14.1104 33.8682 14.4707 34.9346 14.4707C35.4678 14.4707 35.9043 14.3828 36.2441 14.207C36.584 14.0254 36.7539 13.7764 36.7539 13.46C36.7539 13.3193 36.7158 13.1934 36.6396 13.082C36.5693 12.9707 36.4814 12.877 36.376 12.8008C36.2764 12.7246 36.127 12.6514 35.9277 12.5811C35.7285 12.5107 35.5527 12.4551 35.4004 12.4141C35.2539 12.373 35.0459 12.3203 34.7764 12.2559C34.5068 12.1914 34.2871 12.1387 34.1172 12.0977C33.9473 12.0508 33.7334 11.9834 33.4756 11.8955C33.2178 11.8076 33.0039 11.7197 32.834 11.6318C32.6699 11.5439 32.4912 11.4268 32.2979 11.2803C32.1045 11.1338 31.9521 10.9756 31.8408 10.8057C31.7295 10.6357 31.6357 10.4336 31.5596 10.1992C31.4834 9.96484 31.4453 9.70703 31.4453 9.42578C31.4453 8.81641 31.6152 8.29492 31.9551 7.86133C32.2949 7.42773 32.7344 7.11133 33.2734 6.91211C33.8125 6.70703 34.4219 6.60449 35.1016 6.60449C36.4434 6.60449 37.6064 7.01172 38.5908 7.82617L37.5273 9.25C36.8242 8.65234 36.0273 8.35352 35.1367 8.35352C34.6621 8.35352 34.2695 8.43262 33.959 8.59082C33.6543 8.74902 33.502 8.98047 33.502 9.28516C33.502 9.40234 33.5225 9.50781 33.5635 9.60156C33.6045 9.69531 33.6748 9.78027 33.7744 9.85645C33.8799 9.93262 33.9795 9.99707 34.0732 10.0498C34.167 10.1025 34.3047 10.1582 34.4863 10.2168C34.6738 10.2695 34.8291 10.3135 34.9521 10.3486C35.0811 10.3779 35.2627 10.4189 35.4971 10.4717C35.7607 10.5303 35.9775 10.583 36.1475 10.6299C36.3232 10.6709 36.5371 10.7354 36.7891 10.8232C37.0469 10.9053 37.2607 10.9932 37.4307 11.0869C37.6006 11.1748 37.7793 11.292 37.9668 11.4385C38.1543 11.5791 38.3037 11.7344 38.415 11.9043C38.5322 12.0684 38.626 12.2676 38.6963 12.502C38.7725 12.7363 38.8105 12.9912 38.8105 13.2666C38.8105 13.8818 38.6377 14.418 38.292 14.875C37.9463 15.3262 37.4863 15.6631 36.9121 15.8857C36.3438 16.1084 35.6963 16.2197 34.9697 16.2197ZM47.7402 6.82422H49.7617V16H47.7402V14.6816C46.9316 15.707 45.8594 16.2197 44.5234 16.2197C43.6738 16.2197 42.9033 16.0117 42.2119 15.5957C41.5205 15.1738 40.9785 14.5967 40.5859 13.8643C40.1992 13.1318 40.0059 12.3145 40.0059 11.4121C40.0059 10.5098 40.1992 9.69238 40.5859 8.95996C40.9785 8.22754 41.5205 7.65332 42.2119 7.2373C42.9033 6.81543 43.6738 6.60449 44.5234 6.60449C45.8652 6.60449 46.9375 7.11426 47.7402 8.13379V6.82422ZM44.9189 14.2686C45.7275 14.2686 46.3984 13.9961 46.9316 13.4512C47.4707 12.9004 47.7402 12.2207 47.7402 11.4121C47.7402 10.5977 47.4707 9.91797 46.9316 9.37305C46.3984 8.82227 45.7275 8.54688 44.9189 8.54688C44.1045 8.54688 43.4248 8.82227 42.8799 9.37305C42.3408 9.91797 42.0713 10.5977 42.0713 11.4121C42.0713 12.2207 42.3408 12.9004 42.8799 13.4512C43.4248 13.9961 44.1045 14.2686 44.9189 14.2686ZM59.377 6.82422H61.3984V16H59.377V14.6816C58.5684 15.707 57.4961 16.2197 56.1602 16.2197C55.3105 16.2197 54.54 16.0117 53.8486 15.5957C53.1572 15.1738 52.6152 14.5967 52.2227 13.8643C51.8359 13.1318 51.6426 12.3145 51.6426 11.4121C51.6426 10.5098 51.8359 9.69238 52.2227 8.95996C52.6152 8.22754 53.1572 7.65332 53.8486 7.2373C54.54 6.81543 55.3105 6.60449 56.1602 6.60449C57.502 6.60449 58.5742 7.11426 59.377 8.13379V6.82422ZM56.5557 14.2686C57.3643 14.2686 58.0352 13.9961 58.5684 13.4512C59.1074 12.9004 59.377 12.2207 59.377 11.4121C59.377 10.5977 59.1074 9.91797 58.5684 9.37305C58.0352 8.82227 57.3643 8.54688 56.5557 8.54688C55.7412 8.54688 55.0615 8.82227 54.5166 9.37305C53.9775 9.91797 53.708 10.5977 53.708 11.4121C53.708 12.2207 53.9775 12.9004 54.5166 13.4512C55.0615 13.9961 55.7412 14.2686 56.5557 14.2686ZM71.0137 3.03613H73.0352V16H71.0137V14.6816C70.2051 15.707 69.1328 16.2197 67.7969 16.2197C66.9473 16.2197 66.1768 16.0117 65.4854 15.5957C64.7939 15.1738 64.252 14.5967 63.8594 13.8643C63.4727 13.1318 63.2793 12.3145 63.2793 11.4121C63.2793 10.5098 63.4727 9.69238 63.8594 8.95996C64.252 8.22754 64.7939 7.65332 65.4854 7.2373C66.1768 6.81543 66.9473 6.60449 67.7969 6.60449C69.1387 6.60449 70.2109 7.11426 71.0137 8.13379V3.03613ZM68.1924 14.2686C69.001 14.2686 69.6719 13.9961 70.2051 13.4512C70.7441 12.9004 71.0137 12.2207 71.0137 11.4121C71.0137 10.5977 70.7441 9.91797 70.2051 9.37305C69.6719 8.82227 69.001 8.54688 68.1924 8.54688C67.3779 8.54688 66.6982 8.82227 66.1533 9.37305C65.6143 9.91797 65.3447 10.5977 65.3447 11.4121C65.3447 12.2207 65.6143 12.9004 66.1533 13.4512C66.6982 13.9961 67.3779 14.2686 68.1924 14.2686ZM76.4453 5.26855C76.082 5.26855 75.7773 5.14551 75.5312 4.89941C75.2852 4.65332 75.1621 4.35156 75.1621 3.99414C75.1621 3.625 75.2852 3.32031 75.5312 3.08008C75.7773 2.83984 76.082 2.71973 76.4453 2.71973C76.8145 2.71973 77.1221 2.83984 77.3682 3.08008C77.6143 3.32031 77.7373 3.625 77.7373 3.99414C77.7373 4.35742 77.6143 4.66211 77.3682 4.9082C77.1221 5.14844 76.8145 5.26855 76.4453 5.26855ZM75.4346 16V6.82422H77.4561V16H75.4346ZM85.1025 6.60449C85.9463 6.60449 86.7139 6.81543 87.4053 7.2373C88.0967 7.65332 88.6387 8.23047 89.0312 8.96875C89.4238 9.70117 89.6201 10.5156 89.6201 11.4121C89.6201 12.3086 89.4238 13.126 89.0312 13.8643C88.6387 14.5967 88.0967 15.1738 87.4053 15.5957C86.7139 16.0117 85.9463 16.2197 85.1025 16.2197C84.4346 16.2197 83.8252 16.085 83.2744 15.8154C82.7236 15.5459 82.2549 15.1621 81.8682 14.6641V19.4189H79.8467V6.82422H81.8682V8.15137C82.249 7.65918 82.7148 7.27832 83.2656 7.00879C83.8223 6.73926 84.4346 6.60449 85.1025 6.60449ZM82.6768 13.4512C83.2217 13.9961 83.8984 14.2686 84.707 14.2686C85.5156 14.2686 86.1895 13.9961 86.7285 13.4512C87.2676 12.9004 87.5371 12.2207 87.5371 11.4121C87.5371 10.6035 87.2676 9.92383 86.7285 9.37305C86.1895 8.82227 85.5156 8.54688 84.707 8.54688C83.8984 8.54688 83.2217 8.82227 82.6768 9.37305C82.1377 9.92383 81.8682 10.6035 81.8682 11.4121C81.8682 12.2207 82.1377 12.9004 82.6768 13.4512ZM100.589 11.4297C100.589 11.6992 100.571 11.9629 100.536 12.2207H93.1006C93.2646 12.8828 93.6104 13.4131 94.1377 13.8115C94.6709 14.2041 95.3096 14.4004 96.0537 14.4004C96.6279 14.4004 97.1611 14.2803 97.6533 14.04C98.1514 13.7998 98.5381 13.498 98.8135 13.1348L100.176 14.3037C99.7012 14.9014 99.0977 15.3701 98.3652 15.71C97.6387 16.0498 96.8506 16.2197 96.001 16.2197C94.5479 16.2197 93.3379 15.7568 92.3711 14.8311C91.4102 13.9053 90.9297 12.7539 90.9297 11.377C90.9297 10.4863 91.1406 9.67773 91.5625 8.95117C91.9844 8.21875 92.5645 7.64453 93.3027 7.22852C94.0469 6.8125 94.8701 6.60449 95.7725 6.60449C97.1494 6.60449 98.2949 7.06445 99.209 7.98438C100.129 8.89844 100.589 10.0469 100.589 11.4297ZM95.7549 8.42383C95.1045 8.42383 94.5361 8.62012 94.0498 9.0127C93.5693 9.40527 93.2471 9.92383 93.083 10.5684H98.4355C98.2832 9.92383 97.9609 9.40527 97.4688 9.0127C96.9824 8.62012 96.4111 8.42383 95.7549 8.42383ZM105.458 16.2197C103.981 16.2197 102.71 15.751 101.644 14.8135L102.689 13.3896C103.445 14.1104 104.356 14.4707 105.423 14.4707C105.956 14.4707 106.393 14.3828 106.732 14.207C107.072 14.0254 107.242 13.7764 107.242 13.46C107.242 13.3193 107.204 13.1934 107.128 13.082C107.058 12.9707 106.97 12.877 106.864 12.8008C106.765 12.7246 106.615 12.6514 106.416 12.5811C106.217 12.5107 106.041 12.4551 105.889 12.4141C105.742 12.373 105.534 12.3203 105.265 12.2559C104.995 12.1914 104.775 12.1387 104.605 12.0977C104.436 12.0508 104.222 11.9834 103.964 11.8955C103.706 11.8076 103.492 11.7197 103.322 11.6318C103.158 11.5439 102.979 11.4268 102.786 11.2803C102.593 11.1338 102.44 10.9756 102.329 10.8057C102.218 10.6357 102.124 10.4336 102.048 10.1992C101.972 9.96484 101.934 9.70703 101.934 9.42578C101.934 8.81641 102.104 8.29492 102.443 7.86133C102.783 7.42773 103.223 7.11133 103.762 6.91211C104.301 6.70703 104.91 6.60449 105.59 6.60449C106.932 6.60449 108.095 7.01172 109.079 7.82617L108.016 9.25C107.312 8.65234 106.516 8.35352 105.625 8.35352C105.15 8.35352 104.758 8.43262 104.447 8.59082C104.143 8.74902 103.99 8.98047 103.99 9.28516C103.99 9.40234 104.011 9.50781 104.052 9.60156C104.093 9.69531 104.163 9.78027 104.263 9.85645C104.368 9.93262 104.468 9.99707 104.562 10.0498C104.655 10.1025 104.793 10.1582 104.975 10.2168C105.162 10.2695 105.317 10.3135 105.44 10.3486C105.569 10.3779 105.751 10.4189 105.985 10.4717C106.249 10.5303 106.466 10.583 106.636 10.6299C106.812 10.6709 107.025 10.7354 107.277 10.8232C107.535 10.9053 107.749 10.9932 107.919 11.0869C108.089 11.1748 108.268 11.292 108.455 11.4385C108.643 11.5791 108.792 11.7344 108.903 11.9043C109.021 12.0684 109.114 12.2676 109.185 12.502C109.261 12.7363 109.299 12.9912 109.299 13.2666C109.299 13.8818 109.126 14.418 108.78 14.875C108.435 15.3262 107.975 15.6631 107.4 15.8857C106.832 16.1084 106.185 16.2197 105.458 16.2197ZM115.117 16.2197C113.84 16.2197 112.812 15.8652 112.032 15.1562C111.259 14.4473 110.872 13.5098 110.872 12.3438V6.82422H112.885V12.0801C112.885 12.7363 113.09 13.2666 113.5 13.6709C113.91 14.0693 114.449 14.2686 115.117 14.2686C115.785 14.2686 116.321 14.0693 116.726 13.6709C117.13 13.2725 117.332 12.7422 117.332 12.0801V6.82422H119.345V12.3438C119.345 13.5098 118.958 14.4473 118.185 15.1562C117.411 15.8652 116.389 16.2197 115.117 16.2197Z" fill="#1DAEFF"/>
<path d="M105.033 24.0586C104.873 24.0586 104.738 24.0059 104.629 23.9004C104.523 23.791 104.471 23.6562 104.471 23.4961C104.471 23.3359 104.523 23.2031 104.629 23.0977C104.738 22.9883 104.873 22.9336 105.033 22.9336C105.197 22.9336 105.334 22.9883 105.443 23.0977C105.557 23.2031 105.613 23.3359 105.613 23.4961C105.613 23.6562 105.557 23.791 105.443 23.9004C105.334 24.0059 105.197 24.0586 105.033 24.0586ZM113.043 20.9414C113.043 21.0156 113.035 21.1152 113.02 21.2402H107.4C107.475 21.9043 107.752 22.4473 108.232 22.8691C108.717 23.2871 109.309 23.4961 110.008 23.4961C110.496 23.4961 110.943 23.3906 111.35 23.1797C111.756 22.9648 112.072 22.6816 112.299 22.3301L112.791 22.7402C112.494 23.1777 112.1 23.5215 111.607 23.7715C111.115 24.0215 110.572 24.1465 109.979 24.1465C109.033 24.1465 108.244 23.8398 107.611 23.2266C106.982 22.6094 106.668 21.8438 106.668 20.9297C106.668 20.0195 106.973 19.2598 107.582 18.6504C108.191 18.041 108.951 17.7363 109.861 17.7363C110.768 17.7363 111.523 18.043 112.129 18.6562C112.738 19.2656 113.043 20.0273 113.043 20.9414ZM111.514 19.0078C111.057 18.5938 110.502 18.3867 109.85 18.3867C109.197 18.3867 108.645 18.5938 108.191 19.0078C107.738 19.4219 107.475 19.957 107.4 20.6133H112.311C112.236 19.957 111.971 19.4219 111.514 19.0078ZM120.484 20.9414C120.484 21.0156 120.477 21.1152 120.461 21.2402H114.842C114.916 21.9043 115.193 22.4473 115.674 22.8691C116.158 23.2871 116.75 23.4961 117.449 23.4961C117.938 23.4961 118.385 23.3906 118.791 23.1797C119.197 22.9648 119.514 22.6816 119.74 22.3301L120.232 22.7402C119.936 23.1777 119.541 23.5215 119.049 23.7715C118.557 24.0215 118.014 24.1465 117.42 24.1465C116.475 24.1465 115.686 23.8398 115.053 23.2266C114.424 22.6094 114.109 21.8438 114.109 20.9297C114.109 20.0195 114.414 19.2598 115.023 18.6504C115.633 18.041 116.393 17.7363 117.303 17.7363C118.209 17.7363 118.965 18.043 119.57 18.6562C120.18 19.2656 120.484 20.0273 120.484 20.9414ZM118.955 19.0078C118.498 18.5938 117.943 18.3867 117.291 18.3867C116.639 18.3867 116.086 18.5938 115.633 19.0078C115.18 19.4219 114.916 19.957 114.842 20.6133H119.752C119.678 19.957 119.412 19.4219 118.955 19.0078Z" fill="#1DAEFF"/>
</g>
<defs>
<clipPath id="clip0_3_8">
<rect width="125" height="25" fill="white"/>
</clipPath>
</defs>
</svg>
